<svg width="14" height="14" viewBox="0 0 14 14" fill="none" xmlns="http://www.w3.org/2000/svg">
<g id="Instagram" clip-path="url(#clip0_163_487)">
<g id="Vector">
<path d="M7 1.26161C8.87019 1.26161 9.08972 1.26995 9.82891 1.30329C10.5125 1.33386 10.8821 1.4478 11.1294 1.54506C11.4573 1.67289 11.6908 1.82295 11.9353 2.06749C12.1798 2.31203 12.3327 2.54545 12.4577 2.87336C12.5522 3.12068 12.6689 3.49027 12.6995 4.17388C12.7328 4.91306 12.7412 5.13259 12.7412 7.00278C12.7412 8.87296 12.7328 9.0925 12.6995 9.83168C12.6689 10.5153 12.555 10.8849 12.4577 11.1322C12.3299 11.4601 12.1798 11.6935 11.9353 11.9381C11.6908 12.1826 11.4573 12.3355 11.1294 12.4605C10.8821 12.555 10.5125 12.6717 9.82891 12.7023C9.08972 12.7356 8.87019 12.7439 7 12.7439C5.12982 12.7439 4.91029 12.7356 4.1711 12.7023C3.4875 12.6717 3.11791 12.5578 2.87059 12.4605C2.54268 12.3327 2.30925 12.1826 2.06471 11.9381C1.82017 11.6935 1.66733 11.4601 1.54228 11.1322C1.4478 10.8849 1.33108 10.5153 1.30052 9.83168C1.26717 9.0925 1.25883 8.87296 1.25883 7.00278C1.25883 5.13259 1.26717 4.91306 1.30052 4.17388C1.33108 3.49027 1.44502 3.12068 1.54228 2.87336C1.67011 2.54545 1.82017 2.31203 2.06471 2.06749C2.30925 1.82295 2.54268 1.67011 2.87059 1.54506C3.11791 1.45058 3.4875 1.33386 4.1711 1.30329C4.91029 1.26717 5.1326 1.26161 7 1.26161ZM7 0C5.09925 0 4.86027 0.00833664 4.11275 0.0416832C3.36801 0.0750298 2.85947 0.194522 2.41485 0.366812C1.95355 0.544661 1.56451 0.786423 1.17547 1.17547C0.786424 1.56451 0.54744 1.95633 0.366812 2.41485C0.194522 2.85947 0.0750298 3.368 0.0416832 4.11552C0.00833665 4.86026 0 5.09925 0 7C0 8.90075 0.00833665 9.13974 0.0416832 9.88726C0.0750298 10.632 0.194522 11.1405 0.366812 11.5879C0.544661 12.0492 0.786424 12.4383 1.17547 12.8273C1.56451 13.2164 1.95633 13.4553 2.41485 13.636C2.85947 13.8083 3.36801 13.9277 4.11553 13.9611C4.86304 13.9944 5.09925 14.0028 7.00278 14.0028C8.90632 14.0028 9.14252 13.9944 9.89004 13.9611C10.6348 13.9277 11.1433 13.8083 11.5907 13.636C12.052 13.4581 12.4411 13.2164 12.8301 12.8273C13.2191 12.4383 13.4581 12.0464 13.6388 11.5879C13.811 11.1433 13.9305 10.6348 13.9639 9.88726C13.9972 9.13974 14.0056 8.90353 14.0056 7C14.0056 5.09647 13.9972 4.86026 13.9639 4.11274C13.9305 3.368 13.811 2.85947 13.6388 2.41207C13.4609 1.95077 13.2191 1.56173 12.8301 1.17269C12.4411 0.783644 12.0492 0.544661 11.5907 0.364033C11.1461 0.191743 10.6376 0.0722509 9.89004 0.0389043C9.13974 0.00833664 8.90076 0 7 0Z" fill="white"/>
<path d="M7 1.26161C8.87019 1.26161 9.08972 1.26995 9.82891 1.30329C10.5125 1.33386 10.8821 1.4478 11.1294 1.54506C11.4573 1.67289 11.6908 1.82295 11.9353 2.06749C12.1798 2.31203 12.3327 2.54545 12.4577 2.87336C12.5522 3.12068 12.6689 3.49027 12.6995 4.17388C12.7328 4.91306 12.7412 5.13259 12.7412 7.00278C12.7412 8.87296 12.7328 9.0925 12.6995 9.83168C12.6689 10.5153 12.555 10.8849 12.4577 11.1322C12.3299 11.4601 12.1798 11.6935 11.9353 11.9381C11.6908 12.1826 11.4573 12.3355 11.1294 12.4605C10.8821 12.555 10.5125 12.6717 9.82891 12.7023C9.08972 12.7356 8.87019 12.7439 7 12.7439C5.12982 12.7439 4.91029 12.7356 4.1711 12.7023C3.4875 12.6717 3.11791 12.5578 2.87059 12.4605C2.54268 12.3327 2.30925 12.1826 2.06471 11.9381C1.82017 11.6935 1.66733 11.4601 1.54228 11.1322C1.4478 10.8849 1.33108 10.5153 1.30052 9.83168C1.26717 9.0925 1.25883 8.87296 1.25883 7.00278C1.25883 5.13259 1.26717 4.91306 1.30052 4.17388C1.33108 3.49027 1.44502 3.12068 1.54228 2.87336C1.67011 2.54545 1.82017 2.31203 2.06471 2.06749C2.30925 1.82295 2.54268 1.67011 2.87059 1.54506C3.11791 1.45058 3.4875 1.33386 4.1711 1.30329C4.91029 1.26717 5.1326 1.26161 7 1.26161Z" fill="white"/>
</g>
<path id="Vector_2" d="M7.00005 3.40686C5.01593 3.40686 3.40417 5.01583 3.40417 7.00273C3.40417 8.98963 5.01315 10.5986 7.00005 10.5986C8.98695 10.5986 10.5959 8.98963 10.5959 7.00273C10.5959 5.01583 8.98695 3.40686 7.00005 3.40686ZM7.00005 9.33421C5.71065 9.33421 4.66579 8.28935 4.66579 6.99995C4.66579 5.71055 5.71065 4.66569 7.00005 4.66569C8.28945 4.66569 9.33431 5.71055 9.33431 6.99995C9.33431 8.28935 8.28945 9.33421 7.00005 9.33421Z" fill="#2D2D2D"/>
<path id="Vector_3" d="M10.7375 4.10166C11.201 4.10166 11.5768 3.72593 11.5768 3.26244C11.5768 2.79895 11.201 2.42322 10.7375 2.42322C10.274 2.42322 9.89832 2.79895 9.89832 3.26244C9.89832 3.72593 10.274 4.10166 10.7375 4.10166Z" fill="#2D2D2D"/>
</g>
<defs>
<clipPath id="clip0_163_487">
<rect width="14" height="14" fill="white"/>
</clipPath>
</defs>
</svg>
