<svg width="14" height="15" viewBox="0 0 14 15" fill="none" xmlns="http://www.w3.org/2000/svg">
<g id="Telegram">
<path id="Vector" fill-rule="evenodd" clip-rule="evenodd" d="M1.18827 7.0044C4.80581 5.4283 7.21806 4.38924 8.42504 3.88721C11.8712 2.45384 12.5873 2.20484 13.054 2.19662C13.1567 2.19481 13.3862 2.22025 13.5349 2.34089C13.6604 2.44276 13.695 2.58037 13.7115 2.67695C13.728 2.77353 13.7486 2.99355 13.7322 3.16546C13.5455 5.12764 12.7374 9.88935 12.3263 12.087C12.1524 13.0169 11.8099 13.3287 11.4783 13.3593C10.7577 13.4256 10.2104 12.883 9.51249 12.4255C8.42031 11.7096 7.80331 11.2639 6.74317 10.5653C5.51799 9.75791 6.31222 9.31417 7.01045 8.58896C7.19317 8.39917 10.3683 5.51119 10.4297 5.2492C10.4374 5.21643 10.4445 5.0943 10.372 5.02981C10.2994 4.96532 10.1923 4.98737 10.1151 5.00491C10.0055 5.02977 8.26076 6.18299 4.88078 8.46456C4.38554 8.80464 3.93696 8.97033 3.53505 8.96165C3.09198 8.95207 2.23969 8.71113 1.60609 8.50517C0.828968 8.25256 0.211323 8.119 0.265106 7.68998C0.293119 7.46653 0.600841 7.238 1.18827 7.0044Z" fill="white"/>
</g>
</svg>
