<svg width="14" height="14" viewBox="0 0 14 14" fill="none" xmlns="http://www.w3.org/2000/svg">
<g id="Twitter">
<path id="Vector" d="M12.2832 4.1888C12.2886 4.312 12.2886 4.4296 12.2886 4.5528C12.294 8.28801 9.54977 12.6 4.53121 12.6C3.05103 12.6 1.59786 12.1576 0.349976 11.3288C0.56606 11.3568 0.782145 11.368 0.998229 11.368C2.22451 11.368 3.41838 10.9424 4.38535 10.1528C3.2185 10.1304 2.1921 9.34081 1.83556 8.18721C2.24612 8.27121 2.66748 8.25441 3.06724 8.13681C1.79774 7.87921 0.884785 6.72001 0.879383 5.3704C0.879383 5.3592 0.879383 5.348 0.879383 5.3368C1.25753 5.5552 1.6843 5.6784 2.11647 5.6896C0.922599 4.8608 0.549854 3.20879 1.27374 1.91519C2.66208 3.6848 4.70408 4.7544 6.89734 4.872C6.67585 3.892 6.97837 2.86159 7.68604 2.16719C8.78267 1.09759 10.5113 1.15359 11.5486 2.29039C12.159 2.16719 12.7478 1.93199 13.2826 1.60159C13.0774 2.25679 12.6506 2.81119 12.0834 3.16399C12.6236 3.09679 13.153 2.94559 13.65 2.72159C13.2826 3.29279 12.818 3.7856 12.2832 4.1888Z" fill="white"/>
</g>
</svg>
