<svg width="14" height="15" viewBox="0 0 14 15" fill="none" xmlns="http://www.w3.org/2000/svg">
<g id="Group">
<path id="Vector" d="M0 14.4166L0.989493 10.8235C0.377746 9.76881 0.056829 8.57442 0.0601719 7.35341C0.0601719 3.52737 3.18911 0.416626 7.03008 0.416626C8.89541 0.416626 10.6471 1.13858 11.9608 2.44942C13.2779 3.76026 14.0033 5.5036 14 7.35674C14 11.1828 10.8711 14.2935 7.02674 14.2935H7.0234C5.85673 14.2935 4.71012 14.0008 3.69054 13.4485L0 14.4166ZM3.86771 12.1942L4.07832 12.3206C4.96752 12.8463 5.9871 13.1224 7.02674 13.1258H7.03008C10.2225 13.1258 12.8233 10.5407 12.8233 7.36007C12.8233 5.81967 12.2216 4.37243 11.1285 3.28117C10.0353 2.18992 8.57784 1.59106 7.03008 1.59106C3.83763 1.58773 1.23687 4.17281 1.23687 7.35341C1.23687 8.44134 1.54107 9.50266 2.12273 10.4209L2.25979 10.6405L1.67478 12.7664L3.86771 12.1942Z" fill="white"/>
<path id="Vector_2" d="M0.244019 14.1738L1.20008 10.7038C0.608393 9.68902 0.297505 8.53455 0.297505 7.35679C0.300848 3.66382 3.31947 0.659546 7.03007 0.659546C8.83188 0.659546 10.52 1.35822 11.7903 2.62247C13.0606 3.88673 13.7593 5.57019 13.7593 7.36012C13.7593 11.0531 10.7373 14.0574 7.03007 14.0574H7.02673C5.90017 14.0574 4.79368 13.7746 3.81087 13.2422L0.244019 14.1738Z" fill="#2D2D2D"/>
<path id="Vector_3" d="M0 14.4166L0.989493 10.8235C0.377746 9.76881 0.056829 8.57442 0.0601719 7.35341C0.0601719 3.52737 3.18911 0.416626 7.03008 0.416626C8.89541 0.416626 10.6471 1.13858 11.9608 2.44942C13.2779 3.76026 14.0033 5.5036 14 7.35674C14 11.1828 10.8711 14.2935 7.02674 14.2935H7.0234C5.85673 14.2935 4.71012 14.0008 3.69054 13.4485L0 14.4166ZM3.86771 12.1942L4.07832 12.3206C4.96752 12.8463 5.9871 13.1224 7.02674 13.1258H7.03008C10.2225 13.1258 12.8233 10.5407 12.8233 7.36007C12.8233 5.81967 12.2216 4.37243 11.1285 3.28117C10.0353 2.18992 8.57784 1.59106 7.03008 1.59106C3.83763 1.58773 1.23687 4.17281 1.23687 7.35341C1.23687 8.44134 1.54107 9.50266 2.12273 10.4209L2.25979 10.6405L1.67478 12.7664L3.86771 12.1942Z" fill="white"/>
<path id="Vector_4" fill-rule="evenodd" clip-rule="evenodd" d="M5.28834 4.45229C5.15797 4.16284 5.02091 4.15619 4.89722 4.15286C4.79694 4.14954 4.67993 4.14954 4.56293 4.14954C4.44593 4.14954 4.25873 4.19279 4.09827 4.36579C3.93781 4.53879 3.48987 4.958 3.48987 5.81303C3.48987 6.66475 4.11499 7.48984 4.2019 7.60629C4.28882 7.72273 5.40868 9.52929 7.17707 10.2246C8.64794 10.8035 8.9488 10.6871 9.26637 10.6571C9.58394 10.6272 10.296 10.2379 10.4431 9.83205C10.5868 9.42615 10.5868 9.08015 10.5433 9.00695C10.4999 8.93376 10.3829 8.89051 10.2091 8.804C10.0352 8.7175 9.17945 8.2983 9.019 8.23842C8.85854 8.18186 8.74154 8.15191 8.62788 8.32492C8.51088 8.49792 8.17659 8.88718 8.0763 9.00362C7.97602 9.12007 7.87239 9.13338 7.69856 9.04687C7.52473 8.96037 6.96312 8.77739 6.29789 8.18518C5.77974 7.72606 5.42874 7.15714 5.32845 6.98414C5.22817 6.81113 5.31842 6.71798 5.40534 6.63148C5.48223 6.55495 5.57917 6.42853 5.66608 6.32872C5.753 6.22891 5.78309 6.15571 5.83991 6.03927C5.89674 5.92283 5.87 5.82302 5.82654 5.73651C5.78309 5.65334 5.44211 4.79497 5.28834 4.45229Z" fill="white"/>
</g>
</svg>
