<svg width="14" height="10" viewBox="0 0 14 10" fill="none" xmlns="http://www.w3.org/2000/svg">
<g id="Group">
<path id="Vector" d="M13.7116 1.63374C13.5502 1.03407 13.0774 0.561259 12.4777 0.39981C11.3822 0.0999756 6.99997 0.0999756 6.99997 0.0999756C6.99997 0.0999756 2.61778 0.0999756 1.52223 0.388277C0.934098 0.549726 0.449751 1.03407 0.288302 1.63374C0 2.72929 0 5.00111 0 5.00111C0 5.00111 0 7.28446 0.288302 8.36847C0.449751 8.96814 0.922566 9.44096 1.52223 9.6024C2.62931 9.90224 6.99997 9.90224 6.99997 9.90224C6.99997 9.90224 11.3822 9.90224 12.4777 9.61394C13.0774 9.45249 13.5502 8.97967 13.7116 8.38C13.9999 7.28446 13.9999 5.01264 13.9999 5.01264C13.9999 5.01264 14.0115 2.72929 13.7116 1.63374Z" fill="white"/>
<path id="Vector_2" d="M5.60461 7.0999L9.24875 5.00106L5.60461 2.90222V7.0999Z" fill="#2D2D2D"/>
</g>
</svg>
