<svg width="28" height="28" viewBox="0 0 28 28" fill="none" xmlns="http://www.w3.org/2000/svg">
<g id="Frame 43">
<g id="Category">
<g id="Vector">
<path d="M5 7.5625C5 6.45589 5 5.90258 5.18079 5.46613C5.42183 4.88419 5.88419 4.42183 6.46613 4.18079C6.90258 4 7.45589 4 8.5625 4C9.66911 4 10.2224 4 10.6589 4.18079C11.2408 4.42183 11.7032 4.88419 11.9442 5.46613C12.125 5.90258 12.125 6.45589 12.125 7.5625C12.125 8.66911 12.125 9.22242 11.9442 9.65887C11.7032 10.2408 11.2408 10.7032 10.6589 10.9442C10.2224 11.125 9.66911 11.125 8.5625 11.125C7.45589 11.125 6.90258 11.125 6.46613 10.9442C5.88419 10.7032 5.42183 10.2408 5.18079 9.65887C5 9.22242 5 8.66911 5 7.5625Z" stroke="#07604B" stroke-width="1.3"/>
<path d="M16.875 7.5625C16.875 6.45589 16.875 5.90258 17.0558 5.46613C17.2968 4.88419 17.7592 4.42183 18.3411 4.18079C18.7776 4 19.3309 4 20.4375 4C21.5441 4 22.0974 4 22.5339 4.18079C23.1158 4.42183 23.5782 4.88419 23.8192 5.46613C24 5.90258 24 6.45589 24 7.5625C24 8.66911 24 9.22242 23.8192 9.65887C23.5782 10.2408 23.1158 10.7032 22.5339 10.9442C22.0974 11.125 21.5441 11.125 20.4375 11.125C19.3309 11.125 18.7776 11.125 18.3411 10.9442C17.7592 10.7032 17.2968 10.2408 17.0558 9.65887C16.875 9.22242 16.875 8.66911 16.875 7.5625Z" stroke="#07604B" stroke-width="1.3"/>
<path d="M5 19.4375C5 18.3309 5 17.7776 5.18079 17.3411C5.42183 16.7592 5.88419 16.2968 6.46613 16.0558C6.90258 15.875 7.45589 15.875 8.5625 15.875C9.66911 15.875 10.2224 15.875 10.6589 16.0558C11.2408 16.2968 11.7032 16.7592 11.9442 17.3411C12.125 17.7776 12.125 18.3309 12.125 19.4375C12.125 20.5441 12.125 21.0974 11.9442 21.5339C11.7032 22.1158 11.2408 22.5782 10.6589 22.8192C10.2224 23 9.66911 23 8.5625 23C7.45589 23 6.90258 23 6.46613 22.8192C5.88419 22.5782 5.42183 22.1158 5.18079 21.5339C5 21.0974 5 20.5441 5 19.4375Z" stroke="#07604B" stroke-width="1.3"/>
<path d="M16.875 19.4375C16.875 18.3309 16.875 17.7776 17.0558 17.3411C17.2968 16.7592 17.7592 16.2968 18.3411 16.0558C18.7776 15.875 19.3309 15.875 20.4375 15.875C21.5441 15.875 22.0974 15.875 22.5339 16.0558C23.1158 16.2968 23.5782 16.7592 23.8192 17.3411C24 17.7776 24 18.3309 24 19.4375C24 20.5441 24 21.0974 23.8192 21.5339C23.5782 22.1158 23.1158 22.5782 22.5339 22.8192C22.0974 23 21.5441 23 20.4375 23C19.3309 23 18.7776 23 18.3411 22.8192C17.7592 22.5782 17.2968 22.1158 17.0558 21.5339C16.875 21.0974 16.875 20.5441 16.875 19.4375Z" stroke="#07604B" stroke-width="1.3"/>
</g>
</g>
</g>
</svg>
