<svg width="28" height="28" viewBox="0 0 28 28" fill="none" xmlns="http://www.w3.org/2000/svg">
<g id="Frame 44">
<g id="Profile 1">
<path id="Vector" d="M17.35 8C17.35 9.85015 15.8502 11.35 14 11.35V12.65C16.5681 12.65 18.65 10.5681 18.65 8H17.35ZM14 11.35C12.1498 11.35 10.65 9.85015 10.65 8H9.35C9.35 10.5681 11.4319 12.65 14 12.65V11.35ZM10.65 8C10.65 6.14985 12.1498 4.65 14 4.65V3.35C11.4319 3.35 9.35 5.43188 9.35 8H10.65ZM14 4.65C15.8502 4.65 17.35 6.14985 17.35 8H18.65C18.65 5.43188 16.5681 3.35 14 3.35V4.65ZM11 15.65H17V14.35H11V15.65ZM17 22.35H11V23.65H17V22.35ZM11 22.35C9.14985 22.35 7.65 20.8502 7.65 19H6.35C6.35 21.5681 8.43188 23.65 11 23.65V22.35ZM20.35 19C20.35 20.8502 18.8502 22.35 17 22.35V23.65C19.5681 23.65 21.65 21.5681 21.65 19H20.35ZM17 15.65C18.8502 15.65 20.35 17.1498 20.35 19H21.65C21.65 16.4319 19.5681 14.35 17 14.35V15.65ZM11 14.35C8.43188 14.35 6.35 16.4319 6.35 19H7.65C7.65 17.1498 9.14985 15.65 11 15.65V14.35Z" fill="#07604B"/>
</g>
</g>
</svg>
