<svg width="28" height="28" viewBox="0 0 28 28" fill="none" xmlns="http://www.w3.org/2000/svg">
<g id="Frame 43">
<g id="Notification 2">
<path id="Vector" d="M17.24 5.56303C16.5973 5.20515 15.8553 5 15.0605 5H13.5012C10.8051 5 8.71904 7.363 9.05345 10.0383L9.12611 10.6196C9.25993 11.6901 8.86889 12.7594 8.07603 13.4911C6.99306 14.4904 6.69218 16.081 7.33531 17.4069L7.42994 17.602C8.03773 18.855 9.30796 19.6506 10.7006 19.6506H18.2281C19.4215 19.6506 20.5322 19.0409 21.1729 18.0341C22.0774 16.613 21.8378 14.7486 20.6035 13.6022L20.5633 13.5649C20.1847 13.2133 19.893 12.7893 19.6999 12.3253C19.6211 12.1358 19.5587 11.9397 19.5136 11.7392M11.746 22.3976L12.0207 22.7639C13.2569 24.412 15.7292 24.412 16.9653 22.7639L17.24 22.3976" stroke="#07604B" stroke-width="1.5" stroke-linecap="round"/>
<path id="Vector_2" d="M20.9024 8.66262C20.9024 9.67404 20.0825 10.4939 19.0711 10.4939C18.0597 10.4939 17.2397 9.67404 17.2397 8.66262C17.2397 7.65121 18.0597 6.8313 19.0711 6.8313C20.0825 6.8313 20.9024 7.65121 20.9024 8.66262Z" fill="#07604B"/>
</g>
</g>
</svg>
