<svg width="28" height="28" viewBox="0 0 28 28" fill="none" xmlns="http://www.w3.org/2000/svg">
<g id="Frame 43">
<g id="Delete 2">
<path id="Vector" d="M19.7913 15.2405L20.4351 15.3301L19.7913 15.2405ZM19.5421 17.0313L20.1859 17.1209L19.5421 17.0313ZM7.65788 17.0313L8.30167 16.9417L7.65788 17.0313ZM7.40866 15.2405L6.76487 15.3301L7.40866 15.2405ZM10.9245 23.75L10.6718 24.3489L10.9245 23.75ZM8.35133 20.7323L8.96145 20.5081L8.35133 20.7323ZM18.8487 20.7323L19.4588 20.9565H19.4588L18.8487 20.7323ZM16.2755 23.75L16.0228 23.1511L16.2755 23.75ZM7.59709 11.5885C7.56313 11.2311 7.24589 10.969 6.88852 11.0029C6.53114 11.0369 6.26896 11.3541 6.30291 11.7115L7.59709 11.5885ZM20.8971 11.7115C20.931 11.3541 20.6689 11.0369 20.3115 11.0029C19.9541 10.969 19.6369 11.2311 19.6029 11.5885L20.8971 11.7115ZM21.2 10.4C21.559 10.4 21.85 10.109 21.85 9.75C21.85 9.39102 21.559 9.1 21.2 9.1V10.4ZM6 9.1C5.64101 9.1 5.35 9.39102 5.35 9.75C5.35 10.109 5.64101 10.4 6 10.4V9.1ZM11.05 20.2C11.05 20.559 11.341 20.85 11.7 20.85C12.059 20.85 12.35 20.559 12.35 20.2H11.05ZM12.35 12.6C12.35 12.241 12.059 11.95 11.7 11.95C11.341 11.95 11.05 12.241 11.05 12.6H12.35ZM14.85 20.2C14.85 20.559 15.141 20.85 15.5 20.85C15.859 20.85 16.15 20.559 16.15 20.2H14.85ZM16.15 12.6C16.15 12.241 15.859 11.95 15.5 11.95C15.141 11.95 14.85 12.241 14.85 12.6H16.15ZM17.4 9.75V10.4H18.05V9.75H17.4ZM9.8 9.75H9.15V10.4H9.8V9.75ZM19.1475 15.1509L18.8983 16.9417L20.1859 17.1209L20.4351 15.3301L19.1475 15.1509ZM8.30167 16.9417L8.05246 15.1509L6.76487 15.3301L7.01408 17.1209L8.30167 16.9417ZM13.6 23.35C12.1529 23.35 11.6193 23.3377 11.1772 23.1511L10.6718 24.3489C11.4145 24.6623 12.2697 24.65 13.6 24.65V23.35ZM7.01408 17.1209C7.28025 19.0335 7.42392 20.0929 7.7412 20.9565L8.96145 20.5081C8.70442 19.8086 8.57723 18.9217 8.30167 16.9417L7.01408 17.1209ZM11.1772 23.1511C10.2805 22.7728 9.45566 21.8533 8.96145 20.5081L7.7412 20.9565C8.32097 22.5345 9.35256 23.7922 10.6718 24.3489L11.1772 23.1511ZM18.8983 16.9417C18.6228 18.9217 18.4956 19.8086 18.2385 20.5081L19.4588 20.9565C19.7761 20.0929 19.9197 19.0335 20.1859 17.1209L18.8983 16.9417ZM13.6 24.65C14.9303 24.65 15.7855 24.6623 16.5282 24.3489L16.0228 23.1511C15.5807 23.3377 15.0471 23.35 13.6 23.35V24.65ZM18.2385 20.5081C17.7443 21.8533 16.9195 22.7728 16.0228 23.1511L16.5282 24.3489C17.8474 23.7922 18.879 22.5345 19.4588 20.9565L18.2385 20.5081ZM8.05246 15.1509C7.84151 13.6352 7.68371 12.5003 7.59709 11.5885L6.30291 11.7115C6.39284 12.6579 6.55546 13.8254 6.76487 15.3301L8.05246 15.1509ZM20.4351 15.3301C20.6445 13.8254 20.8072 12.6579 20.8971 11.7115L19.6029 11.5885C19.5163 12.5003 19.3585 13.6352 19.1475 15.1509L20.4351 15.3301ZM21.2 9.1H6V10.4H21.2V9.1ZM12.35 20.2V12.6H11.05V20.2H12.35ZM16.15 20.2V12.6H14.85V20.2H16.15ZM16.75 8.8V9.75H18.05V8.8H16.75ZM17.4 9.1H9.8V10.4H17.4V9.1ZM10.45 9.75V8.8H9.15V9.75H10.45ZM13.6 5.65C15.3397 5.65 16.75 7.0603 16.75 8.8H18.05C18.05 6.34233 16.0577 4.35 13.6 4.35V5.65ZM13.6 4.35C11.1423 4.35 9.15 6.34233 9.15 8.8H10.45C10.45 7.0603 11.8603 5.65 13.6 5.65V4.35Z" fill="#E31111"/>
</g>
</g>
</svg>
