<svg width="28" height="28" viewBox="0 0 28 28" fill="none" xmlns="http://www.w3.org/2000/svg">
<g id="Frame 43">
<g id="Message 12">
<path id="Vector" d="M14.6558 20.9271L15.0336 21.456L14.6558 20.9271ZM14.7088 20.8894L14.3344 20.3581L14.7088 20.8894ZM17.5529 19.978L17.5571 20.628L17.5529 19.978ZM10.3884 21.486L10.9919 21.7274L10.3884 21.486ZM12.0487 22.7893L11.6709 22.2604L12.0487 22.7893ZM22.9695 15.2209L22.3202 15.1902L22.9695 15.2209ZM18.2181 19.9723L18.1874 19.323L18.2181 19.9723ZM7.72627 4.54421L8.02136 5.12337L7.72627 4.54421ZM5.54421 6.72627L6.12337 7.02136L5.54421 6.72627ZM20.2488 4.54421L19.9537 5.12337L20.2488 4.54421ZM22.4309 6.72627L21.8517 7.02136L22.4309 6.72627ZM9.99308 13.3362C9.6341 13.3362 9.34308 13.6272 9.34308 13.9862C9.34308 14.3451 9.6341 14.6362 9.99308 14.6362V13.3362ZM17.982 14.6362C18.341 14.6362 18.632 14.3451 18.632 13.9862C18.632 13.6272 18.341 13.3362 17.982 13.3362V14.6362ZM9.99308 9.3417C9.6341 9.3417 9.34308 9.63271 9.34308 9.9917C9.34308 10.3507 9.6341 10.6417 9.99308 10.6417L9.99308 9.3417ZM13.9875 10.6417C14.3465 10.6417 14.6375 10.3507 14.6375 9.9917C14.6375 9.63271 14.3465 9.3417 13.9875 9.3417V10.6417ZM14.9862 3.35H12.9889V4.65H14.9862V3.35ZM4.35 11.9889V16.2114H5.65V11.9889H4.35ZM23.6251 14.684V11.9889H22.3251V14.684H23.6251ZM8.76644 20.6279H9.36736V19.3279H8.76644V20.6279ZM12.4265 23.3183L15.0336 21.456L14.278 20.3982L11.6709 22.2604L12.4265 23.3183ZM15.0336 21.456C15.0609 21.4366 15.0722 21.4285 15.0832 21.4207L14.3344 20.3581C14.3192 20.3688 14.304 20.3797 14.278 20.3982L15.0336 21.456ZM17.6329 19.3279C17.5914 19.3279 17.5674 19.3279 17.5488 19.328L17.5571 20.628C17.5704 20.6279 17.5891 20.6279 17.6329 20.6279V19.3279ZM15.0832 21.4207C15.8076 20.9103 16.6709 20.6336 17.5571 20.628L17.5488 19.328C16.3973 19.3354 15.2757 19.6948 14.3344 20.3581L15.0832 21.4207ZM9.36736 20.6279C9.68553 20.6279 9.90309 20.9492 9.78492 21.2446L10.9919 21.7274C11.4517 20.5781 10.6052 19.3279 9.36736 19.3279V20.6279ZM9.78492 21.2446C9.13592 22.8671 11.0045 24.334 12.4265 23.3183L11.6709 22.2604C11.3054 22.5215 10.8251 22.1445 10.9919 21.7274L9.78492 21.2446ZM22.3251 14.684C22.3251 14.9707 22.3249 15.0914 22.3202 15.1902L23.6188 15.2516C23.6253 15.1144 23.6251 14.9558 23.6251 14.684H22.3251ZM17.6329 20.6279C17.9359 20.6279 18.1114 20.6281 18.2489 20.6215L18.1874 19.323C18.0888 19.3277 17.9529 19.3279 17.6329 19.3279V20.6279ZM22.3202 15.1902C22.2143 17.4273 20.4246 19.2171 18.1874 19.323L18.2489 20.6215C21.1557 20.4839 23.4812 18.1584 23.6188 15.2516L22.3202 15.1902ZM4.35 16.2114C4.35 18.6506 6.32731 20.6279 8.76644 20.6279V19.3279C7.04528 19.3279 5.65 17.9326 5.65 16.2114H4.35ZM12.9889 3.35C11.6015 3.35 10.5218 3.34949 9.65655 3.42019C8.78375 3.4915 8.07212 3.63848 7.43118 3.96506L8.02136 5.12337C8.4485 4.90573 8.97001 4.78061 9.76242 4.71587C10.5624 4.65051 11.58 4.65 12.9889 4.65V3.35ZM5.65 11.9889C5.65 10.58 5.65051 9.56241 5.71587 8.76242C5.78061 7.97001 5.90573 7.4485 6.12337 7.02136L4.96506 6.43118C4.63848 7.07212 4.4915 7.78375 4.42019 8.65655C4.34949 9.52177 4.35 10.6015 4.35 11.9889H5.65ZM7.43118 3.96506C6.36936 4.50608 5.50608 5.36936 4.96506 6.43118L6.12337 7.02136C6.53975 6.20416 7.20416 5.53975 8.02136 5.12337L7.43118 3.96506ZM14.9862 4.65C16.3951 4.65 17.4127 4.65051 18.2127 4.71587C19.0051 4.78061 19.5266 4.90573 19.9537 5.12337L20.5439 3.96506C19.903 3.63848 19.1913 3.4915 18.3185 3.42019C17.4533 3.34949 16.3736 3.35 14.9862 3.35V4.65ZM23.6251 11.9889C23.6251 10.6015 23.6256 9.52177 23.5549 8.65655C23.4836 7.78375 23.3366 7.07212 23.01 6.43118L21.8517 7.02136C22.0694 7.4485 22.1945 7.97001 22.2592 8.76242C22.3246 9.56241 22.3251 10.58 22.3251 11.9889H23.6251ZM19.9537 5.12337C20.7709 5.53975 21.4353 6.20416 21.8517 7.02136L23.01 6.43118C22.469 5.36936 21.6057 4.50608 20.5439 3.96506L19.9537 5.12337ZM9.99308 14.6362H17.982V13.3362H9.99308V14.6362ZM9.99308 10.6417L13.9875 10.6417V9.3417L9.99308 9.3417L9.99308 10.6417Z" fill="#07604B"/>
</g>
</g>
</svg>
