<svg width="28" height="28" viewBox="0 0 28 28" fill="none" xmlns="http://www.w3.org/2000/svg">
<g id="Frame 43">
<g id="Password 2">
<path id="Vector" d="M7.17558 22.992L7.61642 22.3853L7.17558 22.992ZM6.00797 21.8244L6.61473 21.3836L6.00797 21.8244ZM22.992 21.8244L22.3853 21.3836L22.992 21.8244ZM21.8244 22.992L21.3836 22.3853L21.8244 22.992ZM21.8244 6.00797L21.3836 6.61473L21.8244 6.00797ZM22.992 7.17558L22.3853 7.61642L22.992 7.17558ZM7.17558 6.00797L7.61642 6.61473L7.17558 6.00797ZM6.00797 7.17558L6.61473 7.61642L6.00797 7.17558ZM13.4444 14.5V13.75V14.5ZM19.107 16.2757C18.9217 16.6462 19.0719 17.0967 19.4424 17.2819C19.8128 17.4672 20.2634 17.317 20.4486 16.9465L19.107 16.2757ZM19.8335 16.4997L20.5043 16.8351L20.5043 16.8351L19.8335 16.4997ZM15.9403 16.2757C15.755 16.6462 15.9052 17.0967 16.2757 17.2819C16.6462 17.4672 17.0967 17.317 17.2819 16.9465L15.9403 16.2757ZM16.6668 16.4997L17.3377 16.8351L17.3377 16.8351L16.6668 16.4997ZM16.6668 14.6114L17.3377 14.276L17.3377 14.276L16.6668 14.6114ZM17.2819 14.1646C17.0967 13.7941 16.6462 13.6439 16.2757 13.8292C15.9052 14.0144 15.755 14.4649 15.9403 14.8354L17.2819 14.1646ZM13.2876 14.108L12.5913 14.3865L13.2876 14.108ZM13.2876 14.892L13.984 15.1706L13.2876 14.892ZM12.8654 15.9476L12.1691 15.669L12.8654 15.9476ZM12.8654 13.0524L13.5618 12.7739L12.8654 13.0524ZM19.6532 14.5V13.75V14.5ZM14.5 23.25C12.5043 23.25 11.0677 23.249 9.95456 23.1284C8.85544 23.0093 8.16093 22.7809 7.61642 22.3853L6.73474 23.5988C7.57757 24.2112 8.56625 24.4867 9.79299 24.6196C11.0057 24.751 12.5377 24.75 14.5 24.75V23.25ZM4.25 14.5C4.25 16.4623 4.24897 17.9943 4.38036 19.207C4.51327 20.4338 4.78885 21.4224 5.4012 22.2653L6.61473 21.3836C6.21912 20.8391 5.99071 20.1446 5.87163 19.0454C5.75103 17.9323 5.75 16.4957 5.75 14.5H4.25ZM7.61642 22.3853C7.23203 22.106 6.894 21.768 6.61473 21.3836L5.4012 22.2653C5.77299 22.777 6.22301 23.227 6.73474 23.5988L7.61642 22.3853ZM23.25 14.5C23.25 16.4957 23.249 17.9323 23.1284 19.0454C23.0093 20.1446 22.7809 20.8391 22.3853 21.3836L23.5988 22.2653C24.2112 21.4224 24.4867 20.4338 24.6196 19.207C24.751 17.9943 24.75 16.4623 24.75 14.5H23.25ZM14.5 24.75C16.4623 24.75 17.9943 24.751 19.207 24.6196C20.4338 24.4867 21.4224 24.2112 22.2653 23.5988L21.3836 22.3853C20.8391 22.7809 20.1446 23.0093 19.0454 23.1284C17.9323 23.249 16.4957 23.25 14.5 23.25V24.75ZM22.3853 21.3836C22.106 21.768 21.768 22.106 21.3836 22.3853L22.2653 23.5988C22.777 23.227 23.227 22.777 23.5988 22.2653L22.3853 21.3836ZM14.5 5.75C16.4957 5.75 17.9323 5.75103 19.0454 5.87163C20.1446 5.99071 20.8391 6.21912 21.3836 6.61473L22.2653 5.4012C21.4224 4.78885 20.4338 4.51327 19.207 4.38036C17.9943 4.24897 16.4623 4.25 14.5 4.25V5.75ZM24.75 14.5C24.75 12.5377 24.751 11.0057 24.6196 9.79299C24.4867 8.56625 24.2112 7.57757 23.5988 6.73474L22.3853 7.61642C22.7809 8.16093 23.0093 8.85544 23.1284 9.95456C23.249 11.0677 23.25 12.5043 23.25 14.5H24.75ZM21.3836 6.61473C21.768 6.894 22.106 7.23203 22.3853 7.61642L23.5988 6.73474C23.227 6.22301 22.777 5.77299 22.2653 5.4012L21.3836 6.61473ZM14.5 4.25C12.5377 4.25 11.0057 4.24897 9.79299 4.38036C8.56625 4.51327 7.57757 4.78885 6.73474 5.4012L7.61642 6.61473C8.16093 6.21912 8.85544 5.99071 9.95456 5.87163C11.0677 5.75103 12.5043 5.75 14.5 5.75V4.25ZM5.75 14.5C5.75 12.5043 5.75103 11.0677 5.87163 9.95456C5.99071 8.85544 6.21912 8.16093 6.61473 7.61642L5.4012 6.73474C4.78885 7.57757 4.51327 8.56625 4.38036 9.79299C4.24897 11.0057 4.25 12.5377 4.25 14.5H5.75ZM6.73474 5.4012C6.22301 5.77299 5.77299 6.22301 5.4012 6.73474L6.61473 7.61642C6.894 7.23203 7.23203 6.894 7.61642 6.61473L6.73474 5.4012ZM13.4444 15.25L19.6532 15.25V13.75L13.4444 13.75V15.25ZM20.4486 16.9465L20.5043 16.8351L19.1627 16.1643L19.107 16.2757L20.4486 16.9465ZM20.5043 16.8351C20.9071 16.0296 20.9071 15.0815 20.5043 14.276L19.1627 14.9468C19.3543 15.33 19.3543 15.7811 19.1627 16.1643L20.5043 16.8351ZM17.2819 16.9465L17.3377 16.8351L15.996 16.1643L15.9403 16.2757L17.2819 16.9465ZM17.3377 14.276L17.2819 14.1646L15.9403 14.8354L15.996 14.9469L17.3377 14.276ZM17.3377 16.8351C17.7404 16.0296 17.7404 15.0815 17.3377 14.276L15.996 14.9468C16.1876 15.33 16.1876 15.7811 15.996 16.1643L17.3377 16.8351ZM10.2778 13.1389H11.8854V11.6389H10.2778V13.1389ZM11.8854 15.8611H10.2778V17.3611H11.8854V15.8611ZM9.97222 15.5556V13.4444H8.47222V15.5556H9.97222ZM12.1691 13.331L12.5913 14.3865L13.984 13.8294L13.5618 12.7739L12.1691 13.331ZM12.5913 14.6135L12.1691 15.669L13.5618 16.2261L13.984 15.1706L12.5913 14.6135ZM10.2778 15.8611C10.109 15.8611 9.97222 15.7243 9.97222 15.5556H8.47222C8.47222 16.5527 9.2806 17.3611 10.2778 17.3611V15.8611ZM11.8854 17.3611C12.6237 17.3611 13.2876 16.9116 13.5618 16.2261L12.1691 15.669C12.1227 15.785 12.0103 15.8611 11.8854 15.8611V17.3611ZM11.8854 13.1389C12.0103 13.1389 12.1227 13.215 12.1691 13.331L13.5618 12.7739C13.2876 12.0884 12.6237 11.6389 11.8854 11.6389V13.1389ZM10.2778 11.6389C9.2806 11.6389 8.47222 12.4473 8.47222 13.4444H9.97222C9.97222 13.2757 10.109 13.1389 10.2778 13.1389V11.6389ZM12.5913 14.3865C12.6058 14.4229 12.6131 14.4614 12.6131 14.5H14.1131C14.1131 14.2724 14.0701 14.0447 13.984 13.8294L12.5913 14.3865ZM12.6131 14.5C12.6131 14.5386 12.6058 14.5771 12.5913 14.6135L13.984 15.1706C14.0701 14.9553 14.1131 14.7276 14.1131 14.5H12.6131ZM13.4444 13.75H13.3631V15.25H13.4444V13.75ZM19.6532 15.25C19.4455 15.25 19.2556 15.1326 19.1627 14.9469L20.5043 14.276C20.3431 13.9536 20.0136 13.75 19.6532 13.75V15.25Z" fill="#07604B"/>
</g>
</g>
</svg>
