<svg width="28" height="28" viewBox="0 0 28 28" fill="none" xmlns="http://www.w3.org/2000/svg">
<g id="Frame 43">
<g id="Setting">
<path id="Vector" d="M8.13389 7.56951L7.97585 8.2L8.13389 7.56951ZM11.1599 5.82244L10.5349 5.64406L11.1599 5.82244ZM5.71859 11.7529L6.18559 11.3008L5.71859 11.7529ZM5.71859 15.2471L5.25158 14.795H5.25158L5.71859 15.2471ZM8.13389 19.4305L8.29193 20.061L8.13389 19.4305ZM11.1599 21.1776L10.5349 21.3559L11.1599 21.1776ZM15.9905 21.1776L16.6155 21.3559L15.9905 21.1776ZM19.0165 19.4305L19.1746 18.8L19.0165 19.4305ZM21.4318 15.2471L20.9648 15.6992L21.4318 15.2471ZM21.4318 11.7529L20.9648 11.3008L21.4318 11.7529ZM19.0165 7.56951L18.8585 6.93901L19.0165 7.56951ZM15.9905 5.82244L16.6155 5.64406L15.9905 5.82244ZM7.97585 8.2C9.63096 8.61487 11.3167 7.64162 11.7849 6.00082L10.5349 5.64406C10.2591 6.61022 9.26651 7.1833 8.29193 6.93901L7.97585 8.2ZM6.18559 11.3008C4.8828 9.95513 6.15905 7.7446 7.97585 8.2L8.29193 6.93901C5.20651 6.16561 3.03909 9.9197 5.25158 12.205L6.18559 11.3008ZM6.18559 15.6992C7.37243 14.4733 7.37244 12.5267 6.18559 11.3008L5.25158 12.205C5.95044 12.9269 5.95044 14.0731 5.25158 14.795L6.18559 15.6992ZM7.97585 18.8C6.15905 19.2554 4.8828 17.0449 6.18559 15.6992L5.25158 14.795C3.03909 17.0803 5.20651 20.8344 8.29193 20.061L7.97585 18.8ZM11.7849 20.9992C11.3167 19.3584 9.63096 18.3851 7.97585 18.8L8.29193 20.061C9.26651 19.8167 10.2591 20.3898 10.5349 21.3559L11.7849 20.9992ZM15.3655 20.9992C14.8514 22.8003 12.2989 22.8003 11.7849 20.9992L10.5349 21.3559C11.4078 24.4147 15.7426 24.4147 16.6155 21.3559L15.3655 20.9992ZM19.1746 18.8C17.5194 18.3851 15.8337 19.3584 15.3655 20.9992L16.6155 21.3559C16.8913 20.3898 17.8839 19.8167 18.8585 20.061L19.1746 18.8ZM20.9648 15.6992C22.2676 17.0449 20.9913 19.2554 19.1746 18.8L18.8585 20.061C21.9439 20.8344 24.1113 17.0803 21.8988 14.795L20.9648 15.6992ZM20.9648 11.3008C19.778 12.5267 19.778 14.4733 20.9648 15.6992L21.8988 14.795C21.2 14.0731 21.2 12.9269 21.8988 12.205L20.9648 11.3008ZM19.1746 8.2C20.9913 7.7446 22.2676 9.95513 20.9648 11.3008L21.8988 12.205C24.1113 9.9197 21.9439 6.16561 18.8585 6.93901L19.1746 8.2ZM15.3655 6.00082C15.8337 7.64162 17.5194 8.61487 19.1746 8.2L18.8585 6.93901C17.8839 7.1833 16.8913 6.61022 16.6155 5.64406L15.3655 6.00082ZM16.6155 5.64406C15.7426 2.58531 11.4078 2.58531 10.5349 5.64406L11.7849 6.00082C12.2989 4.19973 14.8514 4.19973 15.3655 6.00082L16.6155 5.64406ZM10.2351 13.5C10.2351 15.3447 11.7305 16.8401 13.5752 16.8401V15.5401C12.4485 15.5401 11.5351 14.6267 11.5351 13.5H10.2351ZM13.5752 16.8401C15.4199 16.8401 16.9153 15.3447 16.9153 13.5H15.6153C15.6153 14.6267 14.7019 15.5401 13.5752 15.5401V16.8401ZM16.9153 13.5C16.9153 11.6553 15.4199 10.1599 13.5752 10.1599V11.4599C14.7019 11.4599 15.6153 12.3733 15.6153 13.5H16.9153ZM13.5752 10.1599C11.7305 10.1599 10.2351 11.6553 10.2351 13.5H11.5351C11.5351 12.3733 12.4485 11.4599 13.5752 11.4599V10.1599Z" fill="white"/>
</g>
</g>
</svg>
