<svg width="10" height="16" viewBox="0 0 10 16" fill="none" xmlns="http://www.w3.org/2000/svg">
<path id="1" d="M7.09997 0.608032V12.62C7.09997 13.4787 7.26797 14.0574 7.60397 14.356C7.93997 14.6547 8.51864 14.804 9.33997 14.804V15.392C8.96664 15.3734 8.41597 15.3547 7.68797 15.336C6.97864 15.2987 6.24131 15.28 5.47597 15.28C4.54264 15.28 3.64664 15.2987 2.78797 15.336C1.94797 15.3547 1.29464 15.3734 0.827973 15.392V14.804C1.68664 14.804 2.35864 14.6547 2.84397 14.356C3.32931 14.0387 3.57197 13.4227 3.57197 12.508V5.67603C3.57197 4.78003 3.48797 4.11737 3.31997 3.68803C3.15197 3.2587 2.85331 2.9787 2.42397 2.84803C1.99464 2.71737 1.40664 2.65203 0.659973 2.65203V2.03603C2.17197 1.9987 3.42264 1.87736 4.41197 1.67203C5.41997 1.4667 6.31597 1.11203 7.09997 0.608032Z" fill="white"/>
</svg>
