<svg width="12" height="16" viewBox="0 0 12 16" fill="none" xmlns="http://www.w3.org/2000/svg">
<path id="2" d="M6.266 0.495972C7.666 0.495972 8.76734 0.803972 9.57 1.41997C10.3913 2.03597 10.802 2.9133 10.802 4.05197C10.802 4.77997 10.6153 5.4613 10.242 6.09597C9.88734 6.71197 9.42067 7.29997 8.842 7.85997C8.26334 8.40131 7.638 8.9333 6.966 9.45597C6.31267 9.95997 5.66867 10.4546 5.034 10.94C4.418 11.4253 3.886 11.92 3.438 12.424H9.402C10.1673 12.424 10.6527 12.3306 10.858 12.144C11.0633 11.9386 11.2033 11.5933 11.278 11.108H11.81C11.81 12.2653 11.8193 13.1613 11.838 13.796C11.8567 14.4306 11.8847 15 11.922 15.504C11.754 15.4666 11.446 15.4386 10.998 15.42C10.55 15.4013 10.0367 15.3826 9.458 15.364C8.87934 15.364 8.31 15.364 7.75 15.364H0.134003V14.832C0.675336 14.272 1.32867 13.656 2.094 12.984C2.878 12.2933 3.634 11.5373 4.362 10.716C5.10867 9.89464 5.72467 8.99864 6.21 8.02797C6.714 7.0573 6.966 6.00264 6.966 4.86397C6.966 3.85597 6.73267 3.11864 6.266 2.65197C5.818 2.1853 5.15534 1.95197 4.278 1.95197C3.51267 1.95197 2.81267 2.1573 2.178 2.56797C1.562 2.95997 1.01134 3.53864 0.526003 4.30397L0.0780029 3.99597C0.43267 3.37997 0.871336 2.81064 1.394 2.28797C1.93534 1.74664 2.598 1.3173 3.382 0.999972C4.18467 0.663972 5.146 0.495972 6.266 0.495972Z" fill="white"/>
</svg>
