<svg width="12" height="20" viewBox="0 0 12 20" fill="none" xmlns="http://www.w3.org/2000/svg">
<path id="3" d="M6.14004 0.452026C7.01737 0.452026 7.79204 0.582693 8.46404 0.844026C9.15471 1.10536 9.69604 1.47869 10.088 1.96403C10.48 2.43069 10.676 3.00003 10.676 3.67203C10.676 4.38136 10.452 5.04403 10.004 5.66003C9.55604 6.27603 8.94004 6.80803 8.15604 7.25603C7.39071 7.70403 6.50404 8.04936 5.49604 8.29203C6.63471 8.27336 7.67071 8.42269 8.60404 8.74003C9.53737 9.03869 10.284 9.51469 10.844 10.168C11.404 10.8027 11.684 11.6054 11.684 12.576C11.684 13.4347 11.46 14.228 11.012 14.956C10.564 15.6654 9.95737 16.3 9.19204 16.86C8.44537 17.4387 7.57737 17.924 6.58804 18.316C5.59871 18.7267 4.56271 19.0347 3.48004 19.24C2.41604 19.4454 1.36137 19.548 0.31604 19.548V19.016C1.21204 18.9787 2.10804 18.82 3.00404 18.54C3.91871 18.26 4.74937 17.8494 5.49604 17.308C6.26137 16.7667 6.86804 16.104 7.31604 15.32C7.78271 14.5174 8.01604 13.6027 8.01604 12.576C8.01604 11.4747 7.75471 10.5694 7.23204 9.86003C6.70937 9.15069 5.99071 8.75869 5.07604 8.68403C4.79604 8.79603 4.53471 8.89869 4.29204 8.99203C4.06804 9.08536 3.85337 9.13203 3.64804 9.13203C3.49871 9.13203 3.37737 9.10403 3.28404 9.04803C3.20937 8.97336 3.17204 8.86136 3.17204 8.71203C3.17204 8.52536 3.25604 8.38536 3.42404 8.29203C3.59204 8.19869 3.78804 8.15203 4.01204 8.15203C4.16137 8.15203 4.31071 8.16136 4.46004 8.18003C4.62804 8.19869 4.80537 8.21736 4.99204 8.23603C5.77604 7.67603 6.32671 7.06936 6.64404 6.41603C6.98004 5.74403 7.14804 5.07203 7.14804 4.40003C7.14804 3.54136 6.92404 2.91603 6.47604 2.52403C6.02804 2.11336 5.43071 1.90803 4.68404 1.90803C3.93737 1.90803 3.23737 2.10403 2.58404 2.49603C1.94937 2.86936 1.41737 3.43869 0.98804 4.20403L0.51204 3.95203C0.829373 3.33603 1.22137 2.76669 1.68804 2.24403C2.17337 1.70269 2.78004 1.27336 3.50804 0.956027C4.23604 0.620026 5.11337 0.452026 6.14004 0.452026Z" fill="white"/>
</svg>
