<svg width="37" height="40" viewBox="0 0 37 40" fill="none" xmlns="http://www.w3.org/2000/svg">
<path fill-rule="evenodd" clip-rule="evenodd" d="M8.92138 16.9218C9.58672 7.33571 13.2972 0.435547 18.0845 0.435547C20.4163 0.435547 22.4975 2.07844 24.0989 4.87438C23.0531 5.09445 22.0183 5.36203 20.9981 5.67623C20.0806 4.26394 19.064 3.45003 18.0845 3.45003C15.9879 3.45003 13.7273 7.12771 12.6163 12.706C12.7004 12.6541 12.7832 12.6019 12.8657 12.5498C13.0564 12.4294 13.2454 12.3101 13.4442 12.1996C17.9112 9.6855 22.5532 8.02452 26.5236 7.52411C30.9535 6.96492 34.1394 7.93107 35.5057 10.2326C36.6523 12.1619 36.2964 14.7137 34.5541 17.5217C33.8733 16.7741 33.1043 16.0325 32.295 15.3015C33.0857 13.8123 33.2977 12.5402 32.8258 11.7399C32.3012 10.8566 30.8808 10.3864 28.8739 10.3864C28.2188 10.3889 27.5645 10.4322 26.915 10.516C23.3423 10.9682 19.1058 12.4935 14.9899 14.8086C13.9918 15.3917 13.0158 16.0101 12.064 16.6625C11.9804 17.5985 11.9201 18.5526 11.9077 19.5534C10.789 18.6928 9.78013 17.811 8.92138 16.9218ZM0.664933 10.2326C1.80685 8.30788 4.23612 7.32968 7.59224 7.38846C7.26575 8.34254 6.98724 9.35541 6.74586 10.421C5.04691 10.5039 3.81371 10.9516 3.34951 11.7399C2.6656 12.8884 3.36034 14.9774 5.21093 17.3378C7.39263 20.1247 10.8679 22.9327 14.9899 25.2508C15.9929 25.8177 17.0213 26.3407 18.0722 26.8183C18.9665 26.4053 19.867 25.9637 20.7614 25.4769C20.5324 26.948 20.2307 28.2246 19.8918 29.3204C18.3383 30.0559 16.7848 30.6859 15.2684 31.1924L14.2472 31.4998C13.2074 31.8164 12.3007 32.053 11.4775 32.2233C11.4741 32.2242 11.4709 32.2251 11.4676 32.2259C11.4488 32.231 11.4324 32.2354 11.4125 32.2354L11.0737 32.3062C10.5909 32.3997 10.119 32.475 9.64706 32.5353C8.83008 32.6408 8.0456 32.6936 7.31372 32.6936C4.09841 32.6936 1.77745 31.7048 0.664933 29.8268C-0.483171 27.8945 -0.127289 25.3473 1.60879 22.5438C2.33068 23.3139 3.08702 24.0526 3.8756 24.7579C3.08338 26.2471 2.8714 27.5192 3.34951 28.3195C4.02569 29.4681 6.2306 29.9263 9.24786 29.5449C10.8261 29.3445 12.5421 28.9149 14.3137 28.3195C14.1796 28.2465 14.0444 28.1771 13.9097 28.1079C13.7525 28.027 13.596 27.9466 13.4426 27.8613C8.97553 25.3458 5.17998 22.2604 2.75071 19.1646C2.48457 18.8284 2.27259 18.5225 2.07917 18.2346C-0.0607552 15.1432 -0.579104 12.3277 0.664933 10.2326ZM21.5846 15.0422C22.9075 14.5313 24.2011 14.1243 25.4219 13.847C28.7099 16.0084 31.4966 18.4456 33.4184 20.8949C36.1324 24.351 36.8704 27.5252 35.5041 29.8268C34.3916 31.7048 32.0707 32.6936 28.8554 32.6936C28.8128 32.6936 28.766 32.6894 28.7192 32.6853C28.6724 32.6811 28.6256 32.677 28.583 32.677C28.9162 31.6849 29.1967 30.6767 29.4232 29.6565C31.1345 29.5736 32.3492 29.1139 32.8258 28.3195C33.5019 27.171 32.8087 25.082 30.9643 22.7201C29.9988 21.4963 28.7532 20.2648 27.3374 19.0696C27.3401 19.209 27.3462 19.3462 27.3523 19.4831C27.3604 19.6644 27.3684 19.8451 27.3684 20.0297C27.3684 30.5623 23.8204 38.6411 18.9789 39.5349C18.688 39.5937 18.394 39.6239 18.0845 39.6239C15.7527 39.6239 13.6716 37.981 12.0701 35.185C13.0805 34.9785 14.1188 34.7012 15.171 34.3787C16.0885 35.803 17.1051 36.6094 18.0845 36.6094C18.2594 36.6094 18.4528 36.5807 18.6416 36.5205C21.4035 35.702 24.2738 28.9194 24.2738 20.0297C24.2738 18.8465 24.2011 17.7281 24.1051 16.6324C23.2943 16.0913 22.4603 15.5487 21.5846 15.0422Z" fill="#07604B"/>
</svg>
