<svg xmlns="http://www.w3.org/2000/svg" width="16" height="16" viewBox="0 0 16 16" fill="none">
  <rect width="16" height="16" rx="4" fill="#07604B"/>
  <path d="M6.72747 11C6.65838 11 6.5936 10.9887 6.53315 10.9662C6.47269 10.944 6.41656 10.906 6.36474 10.8523L4.13654 8.54362C4.04154 8.44519 3.99611 8.31758 4.00026 8.1608C4.00475 8.00438 4.0545 7.87696 4.1495 7.77852C4.2445 7.68009 4.36541 7.63087 4.51223 7.63087C4.65905 7.63087 4.77996 7.68009 4.87496 7.77852L6.72747 9.69799L11.1191 5.14765C11.2141 5.04922 11.3372 5 11.4886 5C11.6395 5 11.7625 5.04922 11.8575 5.14765C11.9525 5.24609 12 5.37351 12 5.52993C12 5.68671 11.9525 5.81432 11.8575 5.91275L7.0902 10.8523C7.03838 10.906 6.98224 10.944 6.92179 10.9662C6.86133 10.9887 6.79656 11 6.72747 11Z" fill="white"/>
</svg>