<svg width="24" height="25" viewBox="0 0 24 25" fill="none" xmlns="http://www.w3.org/2000/svg">
<path fill-rule="evenodd" clip-rule="evenodd" d="M8.86745 6.69506C8.74256 6.81999 8.67239 6.98942 8.67239 7.16608C8.67239 7.34273 8.74256 7.51216 8.86745 7.63709L13.7262 12.4958L8.86745 17.3546C8.80382 17.416 8.75307 17.4895 8.71815 17.5708C8.68323 17.6521 8.66486 17.7395 8.66409 17.828C8.66332 17.9165 8.68018 18.0042 8.71367 18.0861C8.74717 18.1679 8.79664 18.2423 8.85919 18.3049C8.92175 18.3674 8.99613 18.4169 9.07801 18.4504C9.15988 18.4839 9.24761 18.5007 9.33607 18.5C9.42453 18.4992 9.51195 18.4808 9.59323 18.4459C9.67452 18.411 9.74803 18.3602 9.80949 18.2966L15.1392 12.9669C15.2641 12.8419 15.3343 12.6725 15.3343 12.4958C15.3343 12.3192 15.2641 12.1498 15.1392 12.0248L9.80949 6.69506C9.68455 6.57016 9.51513 6.5 9.33847 6.5C9.16181 6.5 8.99239 6.57016 8.86745 6.69506Z" fill="#71717A"/>
</svg>
