<svg width="135" height="29" viewBox="0 0 135 29" fill="none" xmlns="http://www.w3.org/2000/svg">
<g id="eloquenta">
<path d="M7.15975 7.58091C8.92462 7.58091 10.3084 8.11238 11.3112 9.17531C12.314 10.2382 12.8154 11.9329 12.8154 14.2593H2.67739L2.6473 13.6878H9.32573C9.36584 12.705 9.30567 11.8026 9.14523 10.9803C8.98479 10.138 8.72407 9.46611 8.36307 8.96473C8.02213 8.46335 7.57089 8.21266 7.00934 8.21266C6.24723 8.21266 5.58541 8.6639 5.02386 9.56639C4.46231 10.4488 4.11134 11.9028 3.97095 13.9284L4.09129 14.1089C4.05118 14.3696 4.02109 14.6504 4.00104 14.9512C4.00104 15.2521 4.00104 15.5529 4.00104 15.8537C4.00104 17.2376 4.20159 18.3807 4.6027 19.2832C5.0038 20.1857 5.52524 20.8475 6.16701 21.2687C6.80878 21.6898 7.47061 21.9004 8.15249 21.9004C8.61376 21.9004 9.08506 21.8302 9.56639 21.6898C10.0477 21.5494 10.519 21.2887 10.9803 20.9077C11.4416 20.5266 11.8627 19.9851 12.2438 19.2832L12.8154 19.5239C12.5947 20.2258 12.2237 20.9277 11.7023 21.6297C11.2009 22.3116 10.5491 22.8731 9.74689 23.3143C8.94468 23.7555 8.00208 23.9761 6.91909 23.9761C5.55533 23.9761 4.35201 23.6753 3.30913 23.0737C2.26625 22.472 1.45401 21.5795 0.872407 20.3963C0.290802 19.1929 0 17.7289 0 16.0042C0 14.1791 0.30083 12.6449 0.90249 11.4015C1.5242 10.158 2.37656 9.21542 3.45954 8.57365C4.54253 7.91183 5.77593 7.58091 7.15975 7.58091Z" fill="white"/>
<path d="M20.4228 0V20.7573C20.4228 21.5996 20.5732 22.1712 20.8741 22.472C21.195 22.7728 21.7264 22.9232 22.4685 22.9232V23.555C22.1075 23.5349 21.556 23.5149 20.8139 23.4948C20.0919 23.4547 19.3499 23.4346 18.5878 23.4346C17.8457 23.4346 17.0836 23.4547 16.3015 23.4948C15.5394 23.5149 14.9678 23.5349 14.5867 23.555V22.9232C15.3288 22.9232 15.8502 22.7728 16.151 22.472C16.4719 22.1712 16.6324 21.5996 16.6324 20.7573V3.60996C16.6324 2.70747 16.492 2.04564 16.2112 1.62448C15.9304 1.18326 15.3889 0.962656 14.5867 0.962656V0.330914C15.2285 0.391079 15.8502 0.421162 16.4519 0.421162C17.214 0.421162 17.9259 0.391079 18.5878 0.330914C19.2496 0.250693 19.8613 0.140388 20.4228 0Z" fill="white"/>
<path d="M31.2217 7.58091C32.6055 7.58091 33.8289 7.86169 34.8918 8.42324C35.9748 8.96473 36.8271 9.83714 37.4489 11.0405C38.0906 12.2438 38.4115 13.8281 38.4115 15.7936C38.4115 17.759 38.0906 19.3434 37.4489 20.5467C36.8271 21.75 35.9748 22.6224 34.8918 23.1639C33.8289 23.7054 32.6055 23.9761 31.2217 23.9761C29.8379 23.9761 28.6045 23.7054 27.5215 23.1639C26.4385 22.6224 25.5861 21.75 24.9644 20.5467C24.3427 19.3434 24.0318 17.759 24.0318 15.7936C24.0318 13.8281 24.3427 12.2438 24.9644 11.0405C25.5861 9.83714 26.4385 8.96473 27.5215 8.42324C28.6045 7.86169 29.8379 7.58091 31.2217 7.58091ZM31.2217 8.18257C30.2791 8.18257 29.5069 8.78423 28.9053 9.98755C28.3237 11.1708 28.0329 13.1062 28.0329 15.7936C28.0329 18.481 28.3237 20.4163 28.9053 21.5996C29.5069 22.7829 30.2791 23.3745 31.2217 23.3745C32.1442 23.3745 32.9063 22.7829 33.508 21.5996C34.1096 20.4163 34.4105 18.481 34.4105 15.7936C34.4105 13.1062 34.1096 11.1708 33.508 9.98755C32.9063 8.78423 32.1442 8.18257 31.2217 8.18257Z" fill="white"/>
<path d="M47.364 7.58091C48.3868 7.58091 49.2492 7.76141 49.9512 8.12241C50.6731 8.46335 51.2748 9.06501 51.7561 9.92739H51.2748C50.9339 9.34578 50.4927 8.92462 49.9512 8.6639C49.4097 8.38313 48.818 8.24274 48.1763 8.24274C47.1133 8.24274 46.2911 8.86445 45.7095 10.1079C45.1278 11.3513 44.8371 13.2465 44.8371 15.7936C44.8371 17.4582 44.9674 18.8119 45.2281 19.8548C45.4888 20.8976 45.8699 21.6497 46.3713 22.111C46.8727 22.5723 47.4543 22.8029 48.1161 22.8029C48.8581 22.8029 49.52 22.482 50.1016 21.8403C50.7032 21.1784 51.0442 20.2358 51.1244 19.0124L51.335 19.8548C51.0943 21.1784 50.5829 22.2012 49.8007 22.9232C49.0386 23.6252 48.1061 23.9761 47.003 23.9761C45.8599 23.9761 44.817 23.6853 43.8744 23.1037C42.9318 22.5221 42.1897 21.6196 41.6483 20.3963C41.1068 19.1729 40.836 17.6286 40.836 15.7635C40.836 13.9385 41.1168 12.4243 41.6783 11.221C42.2399 9.99758 43.012 9.08506 43.9947 8.4834C44.9774 7.88174 46.1005 7.58091 47.364 7.58091ZM54.5238 7.52075L55.0051 7.79149C54.9249 8.05221 54.8647 8.33299 54.8246 8.63382C54.8045 8.91459 54.7945 9.19537 54.7945 9.47614V26.3828C54.7945 27.1449 54.9349 27.6663 55.2157 27.9471C55.4965 28.2279 55.9778 28.3683 56.6597 28.3683V29C56.2987 28.9799 55.7772 28.9499 55.0953 28.9098C54.4335 28.8897 53.7516 28.8797 53.0497 28.8797C52.0871 28.8797 51.1645 28.8897 50.2821 28.9098C49.3996 28.9499 48.7178 28.9799 48.2364 29V28.3683C49.0988 28.3683 49.7707 28.2078 50.252 27.8869C50.7534 27.5861 51.0041 26.9844 51.0041 26.082V9.23548C51.4252 9.17531 51.8464 9.06501 52.2675 8.90456C52.7088 8.74412 53.1199 8.54357 53.501 8.30291C53.9021 8.06224 54.243 7.80152 54.5238 7.52075Z" fill="white"/>
<path d="M72.3066 7.67116V20.306C72.3066 21.2085 72.457 21.8804 72.7578 22.3216C73.0587 22.7427 73.5901 22.9533 74.3522 22.9533V23.5851C73.7305 23.5249 73.1088 23.4948 72.4871 23.4948C71.745 23.4948 71.0331 23.5249 70.3512 23.5851C69.6894 23.6452 69.0777 23.7555 68.5161 23.916V20.9077C68.0147 22.0107 67.3228 22.8029 66.4404 23.2842C65.578 23.7455 64.6454 23.9761 63.6427 23.9761C62.8605 23.9761 62.1987 23.8658 61.6572 23.6452C61.1358 23.4447 60.7146 23.1639 60.3937 22.8029C60.0528 22.4219 59.8121 21.9205 59.6717 21.2988C59.5313 20.677 59.4611 19.8748 59.4611 18.8921V11.2811C59.4611 10.3786 59.3107 9.71681 59.0099 9.29564C58.7291 8.85443 58.1977 8.63382 57.4155 8.63382V8.00208C58.0573 8.06224 58.679 8.09233 59.2806 8.09233C60.0227 8.09233 60.7246 8.06224 61.3865 8.00208C62.0683 7.92185 62.69 7.81155 63.2516 7.67116V19.945C63.2516 20.4865 63.2917 20.9678 63.3719 21.389C63.4722 21.8102 63.6627 22.1511 63.9435 22.4118C64.2243 22.6525 64.6454 22.7728 65.207 22.7728C65.8287 22.7728 66.3903 22.5923 66.8916 22.2313C67.393 21.8703 67.7841 21.379 68.0649 20.7573C68.3657 20.1355 68.5161 19.4336 68.5161 18.6515V11.2811C68.5161 10.3786 68.3657 9.71681 68.0649 9.29564C67.7841 8.85443 67.2526 8.63382 66.4705 8.63382V8.00208C67.1123 8.06224 67.734 8.09233 68.3356 8.09233C69.0777 8.09233 69.7796 8.06224 70.4414 8.00208C71.1233 7.92185 71.745 7.81155 72.3066 7.67116Z" fill="white"/>
<path d="M83.3073 7.58091C85.0722 7.58091 86.456 8.11238 87.4588 9.17531C88.4615 10.2382 88.9629 11.9329 88.9629 14.2593H78.825L78.7949 13.6878H85.4733C85.5134 12.705 85.4532 11.8026 85.2928 10.9803C85.1323 10.138 84.8716 9.46611 84.5106 8.96473C84.1697 8.46335 83.7185 8.21266 83.1569 8.21266C82.3948 8.21266 81.733 8.6639 81.1714 9.56639C80.6099 10.4488 80.2589 11.9028 80.1185 13.9284L80.2388 14.1089C80.1987 14.3696 80.1687 14.6504 80.1486 14.9512C80.1486 15.2521 80.1486 15.5529 80.1486 15.8537C80.1486 17.2376 80.3492 18.3807 80.7503 19.2832C81.1514 20.1857 81.6728 20.8475 82.3146 21.2687C82.9563 21.6898 83.6182 21.9004 84.3 21.9004C84.7613 21.9004 85.2326 21.8302 85.714 21.6898C86.1953 21.5494 86.6666 21.2887 87.1279 20.9077C87.5891 20.5266 88.0103 19.9851 88.3913 19.2832L88.9629 19.5239C88.7423 20.2258 88.3713 20.9277 87.8498 21.6297C87.3485 22.3116 86.6967 22.8731 85.8945 23.3143C85.0922 23.7555 84.1496 23.9761 83.0667 23.9761C81.7029 23.9761 80.4996 23.6753 79.4567 23.0737C78.4138 22.472 77.6016 21.5795 77.02 20.3963C76.4384 19.1929 76.1476 17.7289 76.1476 16.0042C76.1476 14.1791 76.4484 12.6449 77.0501 11.4015C77.6718 10.158 78.5241 9.21542 79.6071 8.57365C80.6901 7.91183 81.9235 7.58091 83.3073 7.58091Z" fill="white"/>
<path d="M101.597 7.58091C102.439 7.58091 103.111 7.69122 103.613 7.91183C104.134 8.13243 104.555 8.41321 104.876 8.75415C105.237 9.1352 105.488 9.62656 105.628 10.2282C105.789 10.8299 105.869 11.6421 105.869 12.6649V20.7573C105.869 21.5996 106.019 22.1712 106.32 22.472C106.641 22.7728 107.172 22.9232 107.914 22.9232V23.555C107.554 23.5349 106.992 23.5149 106.23 23.4948C105.488 23.4547 104.766 23.4346 104.064 23.4346C103.322 23.4346 102.6 23.4547 101.898 23.4948C101.196 23.5149 100.675 23.5349 100.334 23.555V22.9232C100.975 22.9232 101.427 22.7728 101.687 22.472C101.948 22.1712 102.078 21.5996 102.078 20.7573V11.6421C102.078 11.1006 102.028 10.6193 101.928 10.1981C101.828 9.75692 101.627 9.41598 101.326 9.17531C101.025 8.91459 100.594 8.78423 100.033 8.78423C99.3709 8.78423 98.7793 8.96473 98.2579 9.32573C97.7565 9.68672 97.3554 10.1881 97.0545 10.8299C96.7738 11.4516 96.6334 12.1535 96.6334 12.9357V20.7573C96.6334 21.5996 96.7637 22.1712 97.0245 22.472C97.2852 22.7728 97.7364 22.9232 98.3782 22.9232V23.555C98.0372 23.5349 97.5258 23.5149 96.844 23.4948C96.1621 23.4547 95.4702 23.4346 94.7682 23.4346C94.0262 23.4346 93.2741 23.4547 92.512 23.4948C91.7499 23.5149 91.1783 23.5349 90.7973 23.555V22.9232C91.5393 22.9232 92.0608 22.7728 92.3616 22.472C92.6825 22.1712 92.8429 21.5996 92.8429 20.7573V11.2811C92.8429 10.3786 92.6925 9.71681 92.3917 9.29564C92.1109 8.85443 91.5794 8.63382 90.7973 8.63382V8.00208C91.439 8.06224 92.0608 8.09233 92.6624 8.09233C93.4045 8.09233 94.1064 8.06224 94.7682 8.00208C95.4501 7.92185 96.0718 7.81155 96.6334 7.67116V10.6795C97.1348 9.53631 97.8267 8.73409 98.7091 8.27282C99.5915 7.81155 100.554 7.58091 101.597 7.58091Z" fill="white"/>
<path d="M114.785 3.06846V8.03216H118.636V8.63382H114.785V20.6068C114.785 21.3288 114.916 21.8403 115.176 22.1411C115.437 22.4419 115.808 22.5923 116.29 22.5923C116.751 22.5923 117.172 22.4219 117.553 22.0809C117.934 21.7199 118.275 21.1283 118.576 20.306L119.117 20.5467C118.817 21.5294 118.345 22.3517 117.703 23.0135C117.082 23.6553 116.199 23.9761 115.056 23.9761C114.374 23.9761 113.793 23.8859 113.311 23.7054C112.85 23.545 112.449 23.3043 112.108 22.9834C111.667 22.5221 111.366 21.9706 111.206 21.3288C111.065 20.6871 110.995 19.8347 110.995 18.7718V8.63382H108.348V8.03216H110.995V3.85062C111.717 3.83057 112.389 3.76037 113.011 3.64004C113.632 3.51971 114.224 3.32918 114.785 3.06846Z" fill="white"/>
<path d="M123.857 23.7656C122.995 23.7656 122.263 23.6051 121.661 23.2842C121.06 22.9433 120.608 22.492 120.308 21.9305C120.007 21.3489 119.856 20.7071 119.856 20.0052C119.856 19.1428 120.057 18.4409 120.458 17.8994C120.859 17.3378 121.37 16.8966 121.992 16.5757C122.634 16.2348 123.306 15.954 124.008 15.7334C124.71 15.4927 125.371 15.2721 125.993 15.0716C126.615 14.851 127.126 14.6003 127.527 14.3195C127.929 14.0387 128.129 13.6677 128.129 13.2064V11.0104C128.129 10.3686 128.029 9.84717 127.828 9.44606C127.648 9.0249 127.367 8.71404 126.986 8.51349C126.625 8.29288 126.164 8.18257 125.602 8.18257C125.181 8.18257 124.74 8.24274 124.278 8.36307C123.817 8.4834 123.436 8.71404 123.135 9.05498C123.657 9.19537 124.058 9.45609 124.339 9.83714C124.639 10.2182 124.79 10.6795 124.79 11.221C124.79 11.8427 124.579 12.334 124.158 12.695C123.757 13.036 123.246 13.2064 122.624 13.2064C121.962 13.2064 121.461 12.9959 121.12 12.5747C120.779 12.1535 120.608 11.6622 120.608 11.1006C120.608 10.5391 120.749 10.0778 121.03 9.71681C121.31 9.33575 121.701 8.99481 122.203 8.69398C122.704 8.35304 123.346 8.0823 124.128 7.88174C124.91 7.68119 125.763 7.58091 126.685 7.58091C127.568 7.58091 128.35 7.68119 129.032 7.88174C129.713 8.06224 130.295 8.39315 130.776 8.87448C131.258 9.33575 131.569 9.90733 131.709 10.5892C131.849 11.2711 131.92 12.1034 131.92 13.0861V21.3288C131.92 21.8302 131.98 22.1912 132.1 22.4118C132.22 22.6124 132.411 22.7127 132.672 22.7127C132.872 22.7127 133.063 22.6625 133.243 22.5622C133.424 22.462 133.624 22.3216 133.845 22.1411L134.176 22.6525C133.735 22.9934 133.273 23.2642 132.792 23.4647C132.311 23.6653 131.729 23.7656 131.047 23.7656C130.345 23.7656 129.784 23.6653 129.362 23.4647C128.961 23.2642 128.661 22.9734 128.46 22.5923C128.279 22.2113 128.179 21.76 128.159 21.2386C127.678 22.0408 127.086 22.6625 126.384 23.1037C125.682 23.545 124.84 23.7656 123.857 23.7656ZM125.662 22.0809C126.144 22.0809 126.585 21.9506 126.986 21.6898C127.407 21.4291 127.788 21.038 128.129 20.5166V14.4398C127.929 14.7407 127.638 15.0114 127.257 15.2521C126.896 15.4927 126.505 15.7334 126.083 15.9741C125.662 16.2147 125.261 16.4955 124.88 16.8164C124.519 17.1172 124.208 17.4983 123.948 17.9595C123.707 18.4008 123.587 18.9723 123.587 19.6743C123.587 20.4564 123.777 21.0581 124.158 21.4793C124.539 21.8804 125.041 22.0809 125.662 22.0809Z" fill="white"/>
</g>
</svg>
