<svg width="167" height="36" viewBox="0 0 167 36" fill="none" xmlns="http://www.w3.org/2000/svg">
<g id="eloquenta">
<path d="M8.88797 9.41079C11.0788 9.41079 12.7967 10.0705 14.0415 11.39C15.2863 12.7095 15.9087 14.8133 15.9087 17.7012H3.32365L3.28631 16.9917H11.5768C11.6266 15.7718 11.5519 14.6515 11.3527 13.6307C11.1535 12.5851 10.8299 11.751 10.3817 11.1286C9.95851 10.5062 9.39834 10.195 8.70124 10.195C7.75519 10.195 6.93361 10.7552 6.23652 11.8755C5.53942 12.971 5.10373 14.7759 4.92946 17.2905L5.07884 17.5145C5.02905 17.8382 4.9917 18.1867 4.9668 18.5602C4.9668 18.9336 4.9668 19.3071 4.9668 19.6805C4.9668 21.3983 5.21577 22.8174 5.71369 23.9378C6.21162 25.0581 6.85892 25.8797 7.6556 26.4025C8.45228 26.9253 9.27386 27.1867 10.1203 27.1867C10.6929 27.1867 11.278 27.0996 11.8755 26.9253C12.473 26.751 13.0581 26.4274 13.6307 25.9544C14.2033 25.4813 14.7261 24.8091 15.1992 23.9378L15.9087 24.2365C15.6349 25.1079 15.1743 25.9793 14.527 26.8506C13.9046 27.6971 13.0954 28.3942 12.0996 28.9419C11.1037 29.4896 9.93361 29.7635 8.58921 29.7635C6.89627 29.7635 5.40249 29.39 4.10788 28.6432C2.81328 27.8963 1.80498 26.7884 1.08299 25.3195C0.360996 23.8257 0 22.0083 0 19.8672C0 17.6017 0.373444 15.6971 1.12033 14.1535C1.89212 12.61 2.95021 11.4398 4.29461 10.6432C5.639 9.82158 7.17012 9.41079 8.88797 9.41079Z" fill="#1A1A1A"/>
<path d="M25.3525 0V25.7676C25.3525 26.8133 25.5392 27.5228 25.9126 27.8963C26.311 28.2697 26.9707 28.4564 27.8919 28.4564V29.2407C27.4438 29.2158 26.7591 29.1909 25.8379 29.166C24.9417 29.1162 24.0205 29.0913 23.0745 29.0913C22.1533 29.0913 21.2072 29.1162 20.2363 29.166C19.2902 29.1909 18.5807 29.2158 18.1077 29.2407V28.4564C19.0288 28.4564 19.6761 28.2697 20.0496 27.8963C20.4479 27.5228 20.6471 26.8133 20.6471 25.7676V4.48133C20.6471 3.361 20.4728 2.53942 20.1243 2.0166C19.7757 1.46888 19.1035 1.19502 18.1077 1.19502V0.41079C18.9043 0.485478 19.6761 0.522821 20.423 0.522821C21.3691 0.522821 22.2529 0.485478 23.0745 0.41079C23.896 0.311204 24.6554 0.174275 25.3525 0Z" fill="#1A1A1A"/>
<path d="M38.7579 9.41079C40.4758 9.41079 41.9945 9.75934 43.314 10.4564C44.6584 11.1286 45.7164 12.2116 46.4882 13.7054C47.2849 15.1992 47.6833 17.166 47.6833 19.6058C47.6833 22.0456 47.2849 24.0124 46.4882 25.5062C45.7164 27 44.6584 28.083 43.314 28.7552C41.9945 29.4274 40.4758 29.7635 38.7579 29.7635C37.0401 29.7635 35.509 29.4274 34.1646 28.7552C32.8202 28.083 31.7621 27 30.9903 25.5062C30.2185 24.0124 29.8326 22.0456 29.8326 19.6058C29.8326 17.166 30.2185 15.1992 30.9903 13.7054C31.7621 12.2116 32.8202 11.1286 34.1646 10.4564C35.509 9.75934 37.0401 9.41079 38.7579 9.41079ZM38.7579 10.1577C37.5878 10.1577 36.6293 10.9046 35.8824 12.3983C35.1604 13.8672 34.7994 16.2697 34.7994 19.6058C34.7994 22.9419 35.1604 25.3444 35.8824 26.8133C36.6293 28.2822 37.5878 29.0166 38.7579 29.0166C39.9032 29.0166 40.8492 28.2822 41.5961 26.8133C42.343 25.3444 42.7164 22.9419 42.7164 19.6058C42.7164 16.2697 42.343 13.8672 41.5961 12.3983C40.8492 10.9046 39.9032 10.1577 38.7579 10.1577Z" fill="#1A1A1A"/>
<path d="M58.7967 9.41079C60.0664 9.41079 61.137 9.63486 62.0083 10.083C62.9046 10.5062 63.6515 11.2531 64.249 12.3237H63.6515C63.2283 11.6017 62.6805 11.0788 62.0083 10.7552C61.3361 10.4066 60.6017 10.2324 59.805 10.2324C58.4855 10.2324 57.4648 11.0041 56.7428 12.5477C56.0208 14.0913 55.6598 16.444 55.6598 19.6058C55.6598 21.6722 55.8216 23.3527 56.1453 24.6473C56.4689 25.9419 56.9419 26.8755 57.5644 27.4481C58.1868 28.0207 58.9087 28.3071 59.7303 28.3071C60.6515 28.3071 61.4731 27.9087 62.1951 27.112C62.9419 26.2905 63.3652 25.1203 63.4648 23.6017L63.7262 24.6473C63.4274 26.2905 62.7926 27.5602 61.8216 28.4564C60.8756 29.3278 59.7179 29.7635 58.3486 29.7635C56.9295 29.7635 55.6349 29.4025 54.4648 28.6805C53.2946 27.9585 52.3735 26.8382 51.7013 25.3195C51.0291 23.8008 50.693 21.8838 50.693 19.5685C50.693 17.3029 51.0415 15.4232 51.7386 13.9295C52.4357 12.4108 53.3942 11.278 54.6141 10.5311C55.8341 9.78423 57.2282 9.41079 58.7967 9.41079ZM67.6847 9.3361L68.2822 9.6722C68.1826 9.99585 68.1079 10.3444 68.0581 10.7178C68.0332 11.0664 68.0208 11.4149 68.0208 11.7635V32.751C68.0208 33.6971 68.1951 34.3444 68.5436 34.6929C68.8922 35.0415 69.4897 35.2158 70.3361 35.2158V36C69.888 35.9751 69.2407 35.9378 68.3942 35.888C67.5726 35.8631 66.7262 35.8506 65.8548 35.8506C64.6598 35.8506 63.5146 35.8631 62.4191 35.888C61.3237 35.9378 60.4772 35.9751 59.8797 36V35.2158C60.9502 35.2158 61.7843 35.0166 62.3818 34.6183C63.0042 34.2448 63.3154 33.4979 63.3154 32.3776V11.4647C63.8382 11.39 64.361 11.2531 64.8839 11.0539C65.4316 10.8548 65.9419 10.6058 66.415 10.3071C66.9129 10.0083 67.3361 9.68465 67.6847 9.3361Z" fill="#1A1A1A"/>
<path d="M89.7599 9.52282V25.2075C89.7599 26.3278 89.9466 27.1618 90.3201 27.7095C90.6935 28.2324 91.3532 28.4938 92.2993 28.4938V29.278C91.5275 29.2033 90.7557 29.166 89.984 29.166C89.0628 29.166 88.179 29.2033 87.3325 29.278C86.5109 29.3527 85.7516 29.4896 85.0545 29.6888V25.9544C84.4321 27.3237 83.5732 28.3071 82.4777 28.9046C81.4072 29.4772 80.2495 29.7635 79.0047 29.7635C78.0337 29.7635 77.2122 29.6266 76.54 29.3527C75.8927 29.1037 75.3698 28.7552 74.9715 28.3071C74.5483 27.834 74.2495 27.2116 74.0752 26.4398C73.901 25.668 73.8138 24.6722 73.8138 23.4523V14.0041C73.8138 12.8838 73.6271 12.0622 73.2537 11.5394C72.9051 10.9917 72.2454 10.7178 71.2744 10.7178V9.93361C72.0711 10.0083 72.8429 10.0456 73.5898 10.0456C74.5109 10.0456 75.3823 10.0083 76.2039 9.93361C77.0503 9.83403 77.8221 9.6971 78.5192 9.52282V24.7593C78.5192 25.4315 78.569 26.029 78.6686 26.5519C78.7931 27.0747 79.0296 27.4979 79.3781 27.8216C79.7267 28.1203 80.2495 28.2697 80.9466 28.2697C81.7184 28.2697 82.4155 28.0456 83.0379 27.5975C83.6603 27.1494 84.1458 26.5394 84.4943 25.7676C84.8678 24.9958 85.0545 24.1245 85.0545 23.1535V14.0041C85.0545 12.8838 84.8678 12.0622 84.4943 11.5394C84.1458 10.9917 83.486 10.7178 82.5151 10.7178V9.93361C83.3118 10.0083 84.0835 10.0456 84.8304 10.0456C85.7516 10.0456 86.623 10.0083 87.4445 9.93361C88.291 9.83403 89.0628 9.6971 89.7599 9.52282Z" fill="#1A1A1A"/>
<path d="M103.416 9.41079C105.607 9.41079 107.325 10.0705 108.569 11.39C109.814 12.7095 110.437 14.8133 110.437 17.7012H97.8517L97.8143 16.9917H106.105C106.155 15.7718 106.08 14.6515 105.881 13.6307C105.682 12.5851 105.358 11.751 104.91 11.1286C104.487 10.5062 103.926 10.195 103.229 10.195C102.283 10.195 101.462 10.7552 100.765 11.8755C100.067 12.971 99.6317 14.7759 99.4575 17.2905L99.6068 17.5145C99.5571 17.8382 99.5197 18.1867 99.4948 18.5602C99.4948 18.9336 99.4948 19.3071 99.4948 19.6805C99.4948 21.3983 99.7438 22.8174 100.242 23.9378C100.74 25.0581 101.387 25.8797 102.184 26.4025C102.98 26.9253 103.802 27.1867 104.648 27.1867C105.221 27.1867 105.806 27.0996 106.404 26.9253C107.001 26.751 107.586 26.4274 108.159 25.9544C108.731 25.4813 109.254 24.8091 109.727 23.9378L110.437 24.2365C110.163 25.1079 109.702 25.9793 109.055 26.8506C108.433 27.6971 107.623 28.3942 106.628 28.9419C105.632 29.4896 104.462 29.7635 103.117 29.7635C101.424 29.7635 99.9305 29.39 98.6359 28.6432C97.3413 27.8963 96.333 26.7884 95.611 25.3195C94.889 23.8257 94.528 22.0083 94.528 19.8672C94.528 17.6017 94.9015 15.6971 95.6483 14.1535C96.4201 12.61 97.4782 11.4398 98.8226 10.6432C100.167 9.82158 101.698 9.41079 103.416 9.41079Z" fill="#1A1A1A"/>
<path d="M126.12 9.41079C127.166 9.41079 128 9.54772 128.623 9.82158C129.27 10.0954 129.793 10.444 130.191 10.8672C130.639 11.3402 130.95 11.9502 131.125 12.6971C131.324 13.444 131.423 14.4523 131.423 15.722V25.7676C131.423 26.8133 131.61 27.5228 131.984 27.8963C132.382 28.2697 133.042 28.4564 133.963 28.4564V29.2407C133.515 29.2158 132.818 29.1909 131.872 29.166C130.95 29.1162 130.054 29.0913 129.183 29.0913C128.262 29.0913 127.365 29.1162 126.494 29.166C125.623 29.1909 124.975 29.2158 124.552 29.2407V28.4564C125.349 28.4564 125.909 28.2697 126.233 27.8963C126.556 27.5228 126.718 26.8133 126.718 25.7676V14.4523C126.718 13.7801 126.656 13.1826 126.531 12.6597C126.407 12.112 126.158 11.6888 125.784 11.39C125.411 11.0664 124.876 10.9046 124.179 10.9046C123.357 10.9046 122.623 11.1286 121.975 11.5768C121.353 12.0249 120.855 12.6473 120.481 13.444C120.133 14.2158 119.959 15.0871 119.959 16.0581V25.7676C119.959 26.8133 120.12 27.5228 120.444 27.8963C120.768 28.2697 121.328 28.4564 122.125 28.4564V29.2407C121.701 29.2158 121.067 29.1909 120.22 29.166C119.374 29.1162 118.515 29.0913 117.643 29.0913C116.722 29.0913 115.789 29.1162 114.842 29.166C113.896 29.1909 113.187 29.2158 112.714 29.2407V28.4564C113.635 28.4564 114.282 28.2697 114.656 27.8963C115.054 27.5228 115.253 26.8133 115.253 25.7676V14.0041C115.253 12.8838 115.067 12.0622 114.693 11.5394C114.345 10.9917 113.685 10.7178 112.714 10.7178V9.93361C113.511 10.0083 114.282 10.0456 115.029 10.0456C115.95 10.0456 116.822 10.0083 117.643 9.93361C118.49 9.83403 119.262 9.6971 119.959 9.52282V13.2573C120.581 11.8382 121.44 10.8423 122.535 10.2697C123.631 9.6971 124.826 9.41079 126.12 9.41079Z" fill="#1A1A1A"/>
<path d="M142.492 3.80913V9.97095H147.272V10.7178H142.492V25.5809C142.492 26.4772 142.654 27.112 142.978 27.4855C143.301 27.8589 143.762 28.0456 144.359 28.0456C144.932 28.0456 145.455 27.834 145.928 27.4108C146.401 26.9627 146.824 26.2282 147.198 25.2075L147.87 25.5062C147.496 26.7261 146.911 27.7469 146.115 28.5685C145.343 29.3651 144.247 29.7635 142.828 29.7635C141.982 29.7635 141.26 29.6515 140.662 29.4274C140.09 29.2282 139.592 28.9295 139.169 28.5311C138.621 27.9585 138.247 27.2739 138.048 26.4772C137.874 25.6805 137.787 24.6224 137.787 23.3029V10.7178H134.501V9.97095H137.787V4.78008C138.683 4.75519 139.517 4.66805 140.289 4.51867C141.061 4.36929 141.795 4.13278 142.492 3.80913Z" fill="#1A1A1A"/>
<path d="M153.754 29.5021C152.683 29.5021 151.775 29.3029 151.028 28.9046C150.281 28.4813 149.721 27.9212 149.347 27.2241C148.974 26.5021 148.787 25.7054 148.787 24.834C148.787 23.7635 149.036 22.8921 149.534 22.2199C150.032 21.5228 150.667 20.9751 151.439 20.5768C152.235 20.1535 153.069 19.805 153.941 19.5311C154.812 19.2324 155.634 18.9585 156.405 18.7095C157.177 18.4357 157.812 18.1245 158.31 17.7759C158.808 17.4274 159.057 16.9668 159.057 16.3942V13.668C159.057 12.8714 158.932 12.2241 158.683 11.7261C158.459 11.2033 158.111 10.8174 157.638 10.5685C157.19 10.2946 156.617 10.1577 155.92 10.1577C155.397 10.1577 154.849 10.2324 154.277 10.3817C153.704 10.5311 153.231 10.8174 152.858 11.2407C153.505 11.4149 154.003 11.7386 154.351 12.2116C154.725 12.6846 154.912 13.2573 154.912 13.9295C154.912 14.7012 154.65 15.3112 154.127 15.7593C153.629 16.1826 152.995 16.3942 152.223 16.3942C151.401 16.3942 150.779 16.1328 150.356 15.61C149.932 15.0871 149.721 14.4772 149.721 13.7801C149.721 13.083 149.895 12.5104 150.244 12.0622C150.592 11.5892 151.078 11.166 151.7 10.7925C152.322 10.3693 153.119 10.0332 154.09 9.78423C155.061 9.53527 156.119 9.41079 157.264 9.41079C158.36 9.41079 159.331 9.53527 160.177 9.78423C161.024 10.0083 161.746 10.4191 162.343 11.0166C162.941 11.5892 163.327 12.2988 163.501 13.1452C163.675 13.9917 163.762 15.0249 163.762 16.2448V26.4772C163.762 27.0996 163.837 27.5477 163.986 27.8216C164.136 28.0705 164.372 28.195 164.696 28.195C164.945 28.195 165.181 28.1328 165.405 28.0083C165.629 27.8838 165.878 27.7095 166.152 27.4855L166.563 28.1203C166.015 28.5436 165.443 28.8797 164.845 29.1286C164.248 29.3776 163.526 29.5021 162.679 29.5021C161.808 29.5021 161.111 29.3776 160.588 29.1286C160.09 28.8797 159.717 28.5187 159.468 28.0456C159.244 27.5726 159.119 27.0124 159.094 26.3651C158.497 27.361 157.762 28.1328 156.891 28.6805C156.019 29.2282 154.974 29.5021 153.754 29.5021ZM155.995 27.4108C156.592 27.4108 157.14 27.249 157.638 26.9253C158.161 26.6017 158.634 26.1162 159.057 25.4689V17.9253C158.808 18.2988 158.447 18.6349 157.974 18.9336C157.526 19.2324 157.04 19.5311 156.517 19.8299C155.995 20.1286 155.497 20.4772 155.024 20.8755C154.575 21.249 154.19 21.722 153.866 22.2946C153.567 22.8423 153.418 23.5519 153.418 24.4232C153.418 25.3942 153.654 26.1411 154.127 26.6639C154.6 27.1618 155.223 27.4108 155.995 27.4108Z" fill="#1A1A1A"/>
</g>
</svg>
