<svg width="25" height="24" viewBox="0 0 25 24" fill="none" xmlns="http://www.w3.org/2000/svg">
<g id="google 2">
<path id="Vector" d="M23.7753 9.9819L13.8258 9.98145C13.3864 9.98145 13.0303 10.3203 13.0303 10.7384V13.7633C13.0303 14.1814 13.3864 14.5203 13.8257 14.5203H19.4287C18.8152 16.0357 17.67 17.3047 16.209 18.111L18.5982 22.047C22.4306 19.9376 24.6964 16.2365 24.6964 12.0934C24.6964 11.5035 24.6507 11.0818 24.5593 10.6069C24.4898 10.2461 24.1607 9.9819 23.7753 9.9819Z" fill="#167EE6"/>
<path id="Vector_2" d="M12.4994 19.0652C9.75736 19.0652 7.36363 17.6394 6.078 15.5296L1.94238 17.7982C4.04697 21.2695 7.98955 23.6071 12.4994 23.6071C14.7117 23.6071 16.7992 23.0402 18.5975 22.0523V22.0469L16.2084 18.1109C15.1156 18.7141 13.851 19.0652 12.4994 19.0652Z" fill="#12B347"/>
<path id="Vector_3" d="M18.5992 22.0523V22.0469L16.2101 18.1109C15.1172 18.7141 13.8527 19.0652 12.501 19.0652V23.6071C14.7133 23.6071 16.801 23.0402 18.5992 22.0523Z" fill="#0F993E"/>
<path id="Vector_4" d="M5.07621 12C5.07621 10.7138 5.44506 9.51041 6.07875 8.47044L1.94312 6.20187C0.899333 7.9079 0.303711 9.88918 0.303711 12C0.303711 14.1109 0.899333 16.0922 1.94312 17.7982L6.07875 15.5297C5.44506 14.4897 5.07621 13.2863 5.07621 12Z" fill="#FFD500"/>
<path id="Vector_5" d="M12.4994 4.93478C14.2874 4.93478 15.9298 5.53944 17.2127 6.54523C17.5292 6.79333 17.9892 6.77542 18.2791 6.49952L20.5311 4.35628C20.86 4.04325 20.8366 3.53086 20.4852 3.24077C18.3358 1.4662 15.5393 0.392853 12.4994 0.392853C7.98955 0.392853 4.04697 2.73047 1.94238 6.20182L6.078 8.47038C7.36363 6.36056 9.75736 4.93478 12.4994 4.93478Z" fill="#FF4B26"/>
<path id="Vector_6" d="M17.2143 6.54523C17.5308 6.79333 17.9908 6.77542 18.2807 6.49953L20.5327 4.35628C20.8616 4.04325 20.8382 3.53086 20.4868 3.24077C18.3375 1.46615 15.5409 0.392853 12.501 0.392853V4.93478C14.289 4.93478 15.9314 5.53944 17.2143 6.54523Z" fill="#D93F21"/>
</g>
</svg>
