<svg width="12" height="15" viewBox="0 0 12 15" fill="none" xmlns="http://www.w3.org/2000/svg">
<g id="Notification 3">
<path id="Vector" d="M3.45541 11.9999L3.72208 12.4571C4.92208 14.5142 7.32208 14.5142 8.52208 12.4571L8.78875 11.9999M0.910632 10.3663L0.979533 10.5084C1.42205 11.4206 2.34686 11.9999 3.3608 11.9999H8.84134C9.71021 11.9999 10.5189 11.556 10.9854 10.823C11.6439 9.78831 11.4695 8.4309 10.5708 7.59627L10.5415 7.5691C9.93133 7.00243 9.63091 6.17687 9.7342 5.35057L9.77728 5.00595C10.021 3.05578 8.50043 1.33325 6.53508 1.33325H5.3998C3.43685 1.33325 1.91809 3.05368 2.16156 5.00148L2.21446 5.42471C2.31189 6.20412 2.02719 6.98265 1.44993 7.51534C0.661451 8.24294 0.442389 9.401 0.910632 10.3663Z" stroke="#71717A" stroke-width="1.1" stroke-linecap="round"/>
</g>
</svg>
