<svg width="6" height="10" viewBox="0 0 6 10" fill="none" xmlns="http://www.w3.org/2000/svg">
<path id="Vector" fill-rule="evenodd" clip-rule="evenodd" d="M5.60981 9.83745C5.71389 9.73334 5.77236 9.59215 5.77236 9.44494C5.77236 9.29772 5.71389 9.15653 5.60981 9.05242L1.56086 5.00347L5.60981 0.95452C5.66283 0.903307 5.70513 0.842045 5.73422 0.77431C5.76332 0.706575 5.77864 0.633724 5.77928 0.560007C5.77992 0.486291 5.76587 0.413185 5.73795 0.344955C5.71004 0.276725 5.66881 0.214738 5.61669 0.16261C5.56456 0.110482 5.50257 0.0692577 5.43434 0.0413427C5.36611 0.0134277 5.29301 -0.000619888 5.21929 2.09808e-05C5.14557 0.00066185 5.07272 0.0159779 5.00499 0.0450745C4.93725 0.0741711 4.87599 0.116466 4.82478 0.169491L0.383312 4.61096C0.279231 4.71507 0.220762 4.85626 0.220762 5.00347C0.220762 5.15069 0.279231 5.29187 0.383312 5.39599L4.82478 9.83745C4.92889 9.94153 5.07008 10 5.21729 10C5.36451 10 5.50569 9.94153 5.60981 9.83745Z" fill="#1A1A1A"/>
</svg>
