<svg width="6" height="10" viewBox="0 0 6 10" fill="none" xmlns="http://www.w3.org/2000/svg">
<path id="Vector" fill-rule="evenodd" clip-rule="evenodd" d="M0.390194 0.16255C0.286114 0.266662 0.227644 0.40785 0.227644 0.555064C0.227644 0.702279 0.286114 0.843467 0.390194 0.947579L4.43914 4.99653L0.390194 9.04548C0.337169 9.09669 0.294873 9.15796 0.265777 9.22569C0.23668 9.29342 0.221365 9.36628 0.220724 9.43999C0.220084 9.51371 0.234131 9.58681 0.262046 9.65504C0.289961 9.72328 0.331185 9.78526 0.383313 9.83739C0.435441 9.88952 0.497428 9.93074 0.565658 9.95866C0.633888 9.98657 0.706994 10.0006 0.78071 9.99998C0.854427 9.99934 0.927279 9.98402 0.995013 9.95493C1.06275 9.92583 1.12401 9.88353 1.17522 9.83051L5.61669 5.38904C5.72077 5.28493 5.77924 5.14374 5.77924 4.99653C5.77924 4.84931 5.72077 4.70813 5.61669 4.60401L1.17522 0.16255C1.07111 0.0584693 0.929923 0 0.782709 0C0.635494 0 0.494307 0.0584693 0.390194 0.16255Z" fill="#1A1A1A"/>
</svg>
