<svg width="31" height="25" viewBox="0 0 31 25" fill="none" xmlns="http://www.w3.org/2000/svg">
<path id="&#226;&#128;&#156;" d="M31 25H19.0927C17.9294 21.2585 17.3477 17.381 17.3477 13.3673C17.3477 9.28571 18.4084 6.05442 20.5298 3.67346C22.7196 1.22449 25.936 0 30.1788 0V5.71428C26.7572 5.71428 25.0464 7.78912 25.0464 11.9388V13.8775H31V25ZM13.6523 25H1.74503C0.581678 21.2585 0 17.381 0 13.3673C0 9.28571 1.06071 6.05442 3.18212 3.67346C5.37196 1.22449 8.5883 0 12.8311 0V5.71428C9.40949 5.71428 7.69867 7.78912 7.69867 11.9388V13.8775H13.6523V25Z" fill="#E2F2EE"/>
</svg>
