<svg width="18" height="18" viewBox="0 0 18 18" fill="none" xmlns="http://www.w3.org/2000/svg">
<path id="Vector" fill-rule="evenodd" clip-rule="evenodd" d="M17.8174 0.375994C17.7737 0.294026 17.7075 0.226962 17.6256 0.183183C15.6825 -0.850728 4.05895 2.75213 1.05223 4.48649C0.268874 4.93825 -0.0804207 5.46917 0.0155189 6.06158C0.29216 7.77731 4.91496 9.07762 7.42336 9.65978L12.1337 4.95036C12.4066 4.67744 12.8491 4.67744 13.122 4.95036C13.3949 5.22327 13.3949 5.66571 13.122 5.93863L8.36599 10.6928C8.96305 13.2272 10.2494 17.7122 11.9381 17.9842C12.0014 17.9944 12.0648 18 12.1272 18C12.6432 18 13.1089 17.646 13.5123 16.9475C15.2466 13.9435 18.8523 2.3218 17.8174 0.375994Z" fill="white"/>
</svg>
