<svg width="18" height="18" viewBox="0 0 18 18" fill="none" xmlns="http://www.w3.org/2000/svg">
<g id="SVG">
<path id="Vector" fill-rule="evenodd" clip-rule="evenodd" d="M7.66667 3H6.33333V4.33333H3V5.66667H8.34333C8.31205 6.6803 8.00955 7.66701 7.46733 8.524L5.47133 6.52867L4.52867 7.47133L6.63933 9.582C6.44133 9.79 6.23533 9.982 6.02733 10.1587C5.31114 10.7605 4.51035 11.2538 3.65067 11.6227C3.58518 11.6504 3.51917 11.6768 3.45267 11.702L3.44467 11.7047L3.66667 12.3333L3.88933 12.962L3.892 12.9607L3.89667 12.9593L3.91333 12.9527C3.9993 12.9211 4.08444 12.8873 4.16867 12.8513C5.15315 12.4297 6.06993 11.8649 6.88933 11.1753C7.12267 10.9773 7.35533 10.7607 7.582 10.5247L8.52867 11.4713L9.47133 10.5287L8.42933 9.48667C9.20992 8.36272 9.64403 7.03467 9.678 5.66667H11V4.33333H7.66667V3ZM13.1687 14.3333L12.7707 13.2693H10.56L10.16 14.3333H8.8L10.976 8.73333H12.352L14.5287 14.3333H13.1687ZM11.6653 10.3153L12.3453 12.1333H10.9847L11.6647 10.3153H11.6653Z" fill="white"/>
</g>
</svg>
