<svg width="12" height="12" viewBox="0 0 12 12" fill="none" xmlns="http://www.w3.org/2000/svg">
<path id="+" d="M10.5914 1.09435L10.503 1.00596L10.4146 1.09435L6.3305 5.17845L2.22309 1.07104L2.1347 0.982647L2.04631 1.07104L1.23046 1.88689L1.14207 1.97528L1.23046 2.06366L5.33788 6.17108L1.25377 10.2552L1.16538 10.3436L1.25377 10.432L2.04631 11.2245L2.1347 11.3129L2.22309 11.2245L6.30719 7.1404L10.4146 11.2478L10.503 11.3362L10.5914 11.2478L11.4072 10.432L11.4956 10.3436L11.4072 10.2552L7.29982 6.14777L11.3839 2.06366L11.4723 1.97528L11.3839 1.88689L10.5914 1.09435Z" fill="#1A1A1A" stroke="#1A1A1A" stroke-width="0.25"/>
</svg>
